<?xml version="1.0" standalone="no"?>
<!DOCTYPE svg PUBLIC "-//W3C//DTD SVG 20010904//EN"
 "http://www.w3.org/TR/2001/REC-SVG-20010904/DTD/svg10.dtd">
<svg version="1.0" xmlns="http://www.w3.org/2000/svg"
 width="1920.000000pt" height="1080.000000pt" viewBox="0 0 1920.000000 1080.000000"
 preserveAspectRatio="xMidYMid meet">

<g transform="translate(0.000000,1080.000000) scale(0.100000,-0.100000)"
fill="#000000" stroke="none">
<path d="M7325 10762 c-56 -34 -122 -144 -110 -182 10 -32 -19 -43 -76 -30
-63 15 -215 8 -291 -15 -67 -19 -154 -77 -125 -83 18 -4 18 -4 0 -17 -28 -21
-10 -27 43 -15 68 16 142 14 189 -5 55 -22 174 -84 208 -107 33 -24 34 -34 3
-42 -30 -7 -149 -88 -202 -136 -53 -48 -124 -139 -140 -180 -3 -8 -13 -30 -21
-49 -8 -18 -16 -39 -17 -45 -1 -6 -5 -20 -9 -31 -6 -20 -15 -60 -22 -105 -2
-14 -9 -86 -15 -160 -12 -158 -2 -266 29 -327 11 -23 25 -74 31 -112 10 -70
40 -171 67 -224 13 -26 12 -32 -7 -64 -16 -28 -20 -50 -19 -107 2 -71 31 -176
50 -176 5 0 9 -9 9 -19 0 -27 90 -104 176 -152 76 -42 77 -43 114 -159 37
-118 113 -269 158 -315 17 -19 32 -40 32 -47 0 -37 275 -269 380 -320 14 -7
27 -15 30 -19 3 -3 13 -8 23 -12 10 -4 17 -17 17 -34 0 -70 207 -116 323 -71
20 8 27 17 27 38 0 22 7 31 34 44 19 9 36 16 38 16 10 0 -125 -379 -154 -434
l-15 -29 -48 44 c-61 55 -200 199 -252 259 -21 25 -48 56 -59 68 -11 12 -56
64 -100 116 -43 51 -87 99 -97 105 -16 10 -17 9 -11 -16 9 -37 82 -175 100
-189 8 -6 14 -15 14 -19 0 -23 139 -193 241 -295 174 -174 228 -193 289 -105
17 24 30 57 30 72 0 16 4 33 10 39 5 5 27 97 48 203 l38 193 50 28 c43 26 169
146 245 236 39 46 121 170 159 239 26 50 72 155 75 175 0 3 6 14 12 25 16 30
53 159 70 245 11 54 13 113 9 212 -3 75 -7 142 -8 149 -2 8 16 17 47 24 l50
12 -32 7 c-18 4 -35 11 -38 16 -3 5 6 32 20 62 14 29 23 42 21 28 -2 -14 -1
-36 3 -49 6 -24 7 -24 42 20 19 24 44 71 54 104 19 58 45 110 45 90 1 -6 7 5
15 23 25 57 38 230 26 343 -14 128 -14 139 0 119 17 -24 1 82 -27 185 -53 191
-177 395 -313 513 -116 101 -316 242 -401 284 -79 39 -250 96 -319 108 -128
21 -354 -8 -506 -65 -55 -20 -107 -41 -116 -46 -13 -6 -21 -2 -33 16 -9 14
-24 25 -32 25 -14 0 -16 10 -12 64 3 53 1 63 -11 58 -9 -3 -12 -1 -7 6 11 18
-15 14 -49 -6z m189 -181 c-17 -10 -41 -22 -55 -26 -21 -7 -22 -6 -10 9 7 9
28 20 45 25 49 14 53 12 20 -8z m-308 -350 c-7 -11 -76 -52 -76 -45 0 10 55
53 68 54 7 0 11 -4 8 -9z m489 -911 c4 -11 66 -80 138 -153 129 -130 154 -148
272 -198 23 -9 228 -49 256 -49 10 0 43 -11 72 -25 30 -13 73 -27 97 -31 36
-6 39 -8 24 -17 -46 -25 -79 -86 -55 -101 21 -13 226 56 226 76 0 15 27 26 73
27 l33 1 -4 -157 c-2 -90 -11 -188 -20 -228 -38 -173 -142 -426 -216 -525 -29
-40 -117 -147 -134 -165 -7 -7 -35 -37 -63 -66 -47 -50 -73 -72 -129 -106 -30
-18 -34 -19 -115 -33 -141 -24 -140 -24 -217 14 -40 20 -81 36 -92 36 -11 0
-23 5 -27 11 -3 6 -21 17 -38 25 -17 8 -44 23 -61 34 -16 11 -39 24 -50 29
-11 5 -33 23 -49 40 -17 17 -33 31 -37 31 -13 0 -52 41 -110 115 -62 78 -104
146 -174 280 -38 72 -45 93 -36 107 11 18 -3 41 -40 64 -16 10 -59 97 -59 118
0 8 15 29 33 48 51 53 154 183 171 216 20 40 36 49 48 28 21 -37 72 -11 136
68 70 87 112 170 132 261 10 46 6 182 -6 228 -7 24 13 22 21 -3z m-841 -232
c4 -29 25 -90 46 -136 32 -68 36 -83 22 -80 -10 2 -24 22 -33 48 -9 25 -19 52
-22 60 -8 21 -37 135 -37 149 0 6 4 11 9 11 5 0 12 -24 15 -52z m116 -298 c0
-5 -4 -10 -10 -10 -5 0 -10 5 -10 10 0 6 5 10 10 10 6 0 10 -4 10 -10z"/>
<path d="M7891 8772 c-39 -6 -103 -51 -99 -70 3 -14 26 -19 147 -30 79 -7 146
-11 148 -8 13 12 -11 44 -54 72 -47 31 -94 42 -142 36z"/>
<path d="M8382 8733 c-31 -83 -37 -115 -36 -233 0 -84 5 -149 17 -198 l18 -73
-36 -41 c-19 -23 -35 -52 -35 -65 0 -20 5 -23 36 -23 44 0 121 51 130 85 3 14
-2 66 -11 117 -16 91 -27 184 -42 362 -8 93 -22 117 -41 69z"/>
<path d="M8614 8656 c-45 -25 -54 -38 -54 -82 0 -24 8 -59 18 -78 15 -31 21
-35 50 -34 44 3 55 19 59 87 2 42 -2 65 -17 89 -21 35 -25 36 -56 18z"/>
<path d="M7910 8583 c-40 -15 -50 -35 -50 -103 0 -57 3 -70 23 -88 35 -33 84
-21 103 24 39 93 -6 193 -76 167z"/>
<path d="M8440 8013 c-19 -2 -87 -13 -152 -23 -74 -13 -163 -20 -245 -20 -136
0 -173 -10 -173 -49 0 -20 22 -71 31 -71 3 0 28 -17 55 -37 75 -57 113 -74
184 -78 69 -4 160 10 160 26 0 5 11 9 24 9 66 0 216 150 216 216 0 37 -2 38
-100 27z m-36 -94 c-122 -97 -251 -119 -361 -61 -44 22 -41 29 9 25 24 -2 50
0 58 3 8 3 45 8 83 10 59 4 214 37 226 50 2 2 9 4 14 4 5 0 -8 -14 -29 -31z"/>
<path d="M8970 8800 c0 -5 5 -10 10 -10 6 0 10 5 10 10 0 6 -4 10 -10 10 -5 0
-10 -4 -10 -10z"/>
<path d="M13676 8733 c-122 -21 -282 -78 -294 -105 -2 -5 -8 -8 -13 -8 -29 0
-199 -153 -186 -167 3 -2 51 23 106 57 56 33 114 65 129 71 40 14 62 23 112
46 52 24 79 35 100 39 8 1 56 14 105 28 50 14 100 26 113 26 26 0 30 19 5 22
-59 5 -109 2 -177 -9z"/>
<path d="M14195 8729 c-53 -5 -49 -10 30 -30 28 -6 56 -16 63 -22 6 -5 12 -6
12 -2 0 4 6 3 13 -3 7 -6 32 -14 55 -18 23 -4 45 -11 48 -15 3 -5 13 -9 23 -9
24 0 164 -45 218 -70 76 -35 294 -183 445 -302 54 -43 100 -78 104 -78 3 0 -9
19 -26 43 -59 83 -346 347 -376 347 -8 0 -14 4 -14 9 0 14 -158 88 -225 106
-33 9 -76 20 -95 26 -49 14 -215 25 -275 18z"/>
<path d="M8940 8712 c0 -32 81 -121 249 -272 33 -30 61 -60 61 -66 0 -6 6 -17
14 -23 15 -12 78 -138 116 -233 13 -32 27 -58 32 -58 19 0 -11 255 -33 270 -3
3 -10 20 -14 38 -3 17 -11 32 -16 32 -5 0 -9 5 -9 11 0 21 -53 79 -123 136
-40 31 -81 65 -91 75 -11 10 -23 18 -27 18 -4 0 -22 14 -40 31 -29 27 -88 59
-110 59 -5 0 -9 -8 -9 -18z"/>
<path d="M6713 8705 c-23 -7 -44 -11 -46 -8 -10 9 -78 -30 -162 -94 -6 -5 -28
-21 -50 -37 -22 -16 -44 -34 -50 -40 -5 -6 -26 -24 -45 -40 -19 -15 -79 -69
-133 -119 -54 -49 -123 -108 -153 -129 -30 -22 -54 -43 -54 -47 0 -5 -15 -16
-32 -25 -40 -19 -88 -61 -88 -76 0 -5 -6 -10 -13 -10 -14 0 -66 -53 -115 -117
-56 -72 -143 -263 -120 -263 3 0 34 37 70 83 130 166 222 258 312 313 33 21
75 49 91 62 75 62 295 271 295 281 0 3 16 15 36 26 19 10 45 30 57 45 53 61
118 108 160 115 52 9 122 45 122 64 0 22 -37 29 -82 16z"/>
<path d="M14407 8583 c-17 -17 -1 -36 81 -96 137 -101 188 -161 385 -456 88
-132 167 -308 167 -373 0 -13 4 -28 9 -33 5 -6 11 -26 13 -45 2 -26 10 -38 30
-48 19 -9 29 -23 32 -45 16 -98 28 -218 27 -264 -2 -51 12 -72 22 -35 3 9 5
-17 4 -58 0 -70 1 -75 21 -78 12 -2 35 3 52 11 l29 15 -6 -29 c-11 -58 36 -21
57 45 8 24 10 61 6 100 -4 33 -9 108 -13 166 -5 96 -4 103 11 91 9 -8 19 -31
22 -52 4 -21 11 -36 16 -33 11 7 5 38 -28 141 -15 46 -24 100 -24 138 0 182
-119 449 -274 613 -83 88 -276 195 -276 154 0 -5 21 -23 48 -40 91 -60 105
-76 107 -118 2 -21 6 -50 10 -64 4 -14 -20 14 -55 62 -71 99 -185 212 -263
261 -94 60 -189 91 -210 70z"/>
<path d="M6798 8519 c-21 -12 -23 -32 -5 -47 9 -8 21 -4 45 14 18 14 32 30 32
35 0 12 -50 11 -72 -2z"/>
<path d="M10420 8493 c-143 -20 -189 -30 -280 -60 -148 -48 -215 -82 -368
-184 -155 -103 -254 -188 -321 -274 -49 -64 -57 -76 -107 -169 -17 -32 -34
-54 -37 -48 -4 5 -13 65 -21 133 -9 68 -18 135 -21 149 -2 14 -10 49 -16 78
-14 70 -69 232 -104 307 -24 51 -29 56 -33 36 -6 -36 18 -185 31 -193 9 -6 9
-8 -1 -8 -8 0 -9 -5 -3 -17 10 -19 20 -62 72 -303 17 -80 37 -172 45 -205 22
-99 18 -181 -13 -265 -9 -24 -11 -31 -28 -105 -27 -118 -35 -166 -35 -201 0
-19 -4 -34 -10 -34 -5 0 -10 -7 -10 -15 0 -8 5 -15 11 -15 8 0 8 -5 -1 -15 -7
-8 -16 -48 -21 -88 -13 -113 -18 -139 -30 -153 -5 -7 -11 -23 -13 -36 -3 -31
-10 -48 -59 -150 -23 -48 -45 -88 -48 -88 -4 0 -9 10 -12 22 -5 18 -8 19 -21
8 -22 -18 -20 -40 4 -40 23 0 25 -11 8 -43 -6 -12 -15 -30 -20 -40 -14 -30
-11 -168 6 -241 9 -38 14 -71 11 -74 -3 -3 -5 0 -5 7 0 19 -18 3 -35 -30 -43
-82 -75 -323 -47 -351 19 -19 38 9 57 87 14 59 31 183 34 248 1 29 23 1 49
-63 30 -75 80 -234 76 -241 -2 -3 -22 -11 -46 -18 -24 -6 -70 -21 -104 -32
-34 -11 -81 -22 -105 -25 -24 -3 -46 -8 -49 -12 -5 -8 -39 -27 -82 -50 -16 -7
-54 -16 -85 -19 -55 -5 -128 -24 -165 -44 -10 -5 -22 -9 -27 -9 -15 0 -181
-80 -226 -109 -67 -43 -162 -140 -185 -189 -12 -26 -30 -60 -39 -77 -45 -80
-66 -122 -67 -139 -1 -10 -7 -22 -14 -26 -16 -10 -68 -152 -110 -300 -39 -137
6 -82 148 182 23 42 42 83 42 91 0 8 6 19 13 25 7 6 29 42 47 79 81 162 157
243 291 311 47 23 87 42 91 42 3 0 9 -30 12 -67 9 -90 17 -154 23 -178 11 -53
31 -220 37 -320 3 -37 -22 -197 -44 -290 -9 -35 -36 -165 -46 -220 -2 -11 -8
-45 -14 -75 -6 -30 -13 -65 -15 -77 -2 -12 -6 -34 -9 -50 -3 -15 -8 -74 -11
-129 -5 -104 3 -188 28 -304 l15 -65 -46 50 c-25 28 -70 82 -100 120 -31 39
-58 72 -61 75 -4 3 -18 23 -33 45 -15 23 -57 72 -94 110 -36 39 -96 103 -132
144 -37 41 -75 83 -84 93 -10 10 -18 22 -18 26 0 5 -10 17 -22 28 -13 11 -43
45 -68 74 -25 30 -70 82 -100 115 -30 34 -68 77 -85 96 -16 18 -58 66 -91 104
-65 75 -216 272 -303 395 -51 73 -51 74 -29 83 12 4 31 7 43 5 11 -1 25 1 32
5 7 5 14 -7 18 -35 9 -52 28 -90 70 -143 18 -22 39 -54 48 -70 21 -41 53 -69
72 -61 20 7 13 50 -21 147 -13 37 -24 80 -24 97 0 30 1 31 33 25 17 -3 60 -21
95 -40 70 -36 112 -42 133 -17 7 9 23 20 36 25 13 5 23 15 23 22 0 8 20 22 45
32 43 16 74 48 57 58 -4 3 -27 1 -52 -3 -25 -5 -87 -9 -139 -10 -82 0 -92 2
-76 13 19 15 13 37 -11 37 -8 0 -31 -11 -52 -24 -21 -13 -52 -27 -69 -30 -31
-7 -32 -6 -43 33 l-11 40 -33 -16 c-37 -17 -66 -12 -66 11 0 21 48 49 75 42
14 -4 25 -1 28 7 5 13 -1 118 -9 155 -5 23 -37 31 -49 12 -12 -19 -35 -10 -35
14 0 32 22 48 54 40 19 -4 26 -2 26 8 0 8 -3 18 -7 22 -5 4 -15 62 -25 129
-15 115 -25 163 -61 297 -27 101 -117 320 -148 361 -16 21 -18 22 -34 6 -9
-10 -21 -15 -26 -12 -15 10 -10 33 8 43 15 9 14 14 -9 63 -14 30 -29 64 -32
76 -4 11 -13 24 -20 26 -8 3 -17 20 -21 38 -8 37 -25 21 -17 -17 4 -21 1 -24
-27 -24 -27 0 -34 5 -47 35 -18 44 -18 44 5 38 22 -6 35 21 22 45 -12 25 -21
91 -12 96 13 9 85 -15 97 -32 10 -14 15 -13 47 5 20 12 44 19 55 16 14 -3 21
2 25 16 4 15 10 19 23 14 11 -4 22 0 30 12 13 17 15 17 32 2 25 -22 28 -22
103 13 90 43 112 56 126 77 21 32 1 46 -68 45 -62 0 -224 -35 -244 -53 -5 -5
-16 -9 -25 -9 -9 0 -40 -16 -70 -35 -60 -37 -85 -43 -93 -21 -3 8 -18 22 -32
32 -24 15 -27 15 -44 0 -19 -18 -31 -21 -31 -8 0 5 10 13 23 19 19 9 22 16 18
62 -3 49 -4 51 -20 37 -10 -9 -25 -16 -33 -16 -9 0 -18 -7 -22 -15 -9 -25 -25
-17 -40 19 -8 19 -23 39 -34 45 -11 6 -22 24 -25 41 -4 19 -16 34 -32 42 -16
7 -25 19 -25 34 0 24 -42 60 -58 50 -5 -3 -7 5 -5 18 4 18 -3 30 -26 47 -17
12 -31 27 -31 31 0 40 -236 281 -272 278 -43 -4 -58 0 -58 14 0 8 7 17 16 20
14 5 14 9 3 22 -10 12 -23 14 -55 9 -48 -7 -65 7 -40 34 27 30 -12 45 -44 16
-15 -13 -22 -11 -74 20 -75 45 -156 69 -156 45 0 -13 103 -112 170 -163 189
-142 258 -207 362 -337 34 -41 63 -77 67 -80 16 -13 90 -136 129 -215 13 -27
29 -53 35 -57 6 -3 12 -16 14 -28 2 -12 11 -34 21 -49 10 -14 24 -38 32 -53 7
-16 17 -28 22 -28 4 0 8 -6 8 -13 0 -7 16 -40 36 -73 74 -120 132 -231 152
-289 11 -33 28 -85 37 -115 10 -30 21 -59 25 -65 4 -5 11 -26 15 -45 4 -19 11
-41 16 -50 20 -39 69 -151 69 -160 0 -5 11 -33 24 -62 22 -49 53 -128 85 -218
18 -49 48 -199 60 -300 16 -126 19 -119 -36 -115 -153 14 -277 11 -403 -9 -19
-3 -57 -8 -85 -11 -64 -8 -163 -33 -195 -49 -14 -7 -41 -21 -62 -31 -53 -25
-116 -87 -202 -198 -70 -90 -95 -116 -181 -191 l-30 -26 30 6 c44 10 129 49
144 68 7 9 19 16 27 16 7 0 44 30 81 66 39 38 85 72 108 80 22 8 54 20 70 28
55 25 80 34 155 56 41 12 93 30 115 40 39 17 216 76 303 101 47 14 62 5 62
-34 0 -37 137 -294 162 -305 4 -2 15 -19 24 -37 9 -19 26 -45 37 -58 12 -13
41 -48 64 -78 23 -29 55 -68 70 -84 15 -17 41 -46 57 -65 15 -19 45 -53 65
-75 20 -22 59 -67 86 -100 28 -33 52 -62 55 -65 3 -3 23 -27 44 -55 22 -27 84
-95 139 -150 55 -55 145 -155 200 -222 55 -68 104 -123 108 -123 5 0 9 -4 9
-9 0 -19 70 -114 141 -192 114 -124 121 -131 178 -176 58 -47 53 -51 -28 -27
-56 16 -143 12 -168 -8 -7 -6 -13 -8 -13 -5 0 8 -41 -14 -70 -38 -29 -24 -70
-79 -70 -95 0 -5 -4 -10 -8 -10 -23 0 -43 -156 -27 -212 l6 -23 -18 22 c-10
12 -34 28 -53 36 -19 8 -45 24 -57 36 -12 11 -29 21 -38 21 -9 0 -18 7 -22 15
-3 9 -24 25 -47 37 -22 11 -55 31 -72 44 -17 13 -37 24 -45 24 -8 0 -41 18
-74 40 -33 22 -65 40 -72 40 -6 0 -13 3 -15 8 -4 9 -103 82 -112 82 -3 0 -14
6 -23 14 -10 8 -56 45 -103 81 -47 37 -115 95 -151 130 -37 34 -75 68 -85 76
-11 8 -37 37 -58 64 -56 70 -149 164 -163 165 -7 0 -13 6 -13 13 0 7 -64 75
-141 152 -78 77 -160 163 -183 190 -54 65 -93 110 -133 153 -18 18 -33 38 -33
42 0 5 -6 13 -13 17 -7 4 -28 29 -45 55 -17 25 -35 48 -40 50 -4 1 -25 28 -45
58 -20 30 -50 71 -67 90 l-31 35 5 -34 c11 -61 159 -336 189 -349 4 -2 7 -10
7 -17 0 -17 153 -206 219 -270 28 -27 51 -55 51 -61 0 -11 -62 -64 -74 -64 -3
0 -38 -21 -78 -47 -41 -27 -121 -72 -180 -102 -59 -30 -105 -58 -102 -63 18
-29 192 8 262 55 46 31 129 111 169 165 14 17 29 32 33 32 5 0 30 -23 57 -51
196 -205 270 -279 281 -279 6 0 12 -6 12 -12 0 -17 123 -137 228 -224 l82 -69
5 -96 c3 -53 11 -139 19 -190 8 -52 17 -139 20 -194 6 -113 3 -119 -87 -188
l-45 -35 -156 6 c-110 3 -156 2 -156 -6 0 -14 84 -40 175 -53 39 -5 99 -14
135 -19 60 -9 355 -6 495 4 33 3 107 8 165 11 133 8 348 40 394 59 l36 15 92
-75 c51 -42 143 -123 203 -181 159 -152 166 -159 210 -185 22 -13 78 -40 125
-58 135 -53 168 -75 283 -183 89 -83 188 -101 242 -42 22 22 27 24 52 13 15
-7 33 -15 38 -19 6 -4 33 -10 60 -14 44 -5 55 -3 87 19 20 13 50 24 66 24 16
-1 56 14 90 32 86 46 125 102 138 200 4 27 10 50 13 50 4 0 20 -25 36 -55 17
-30 33 -55 38 -55 4 0 7 -5 7 -10 0 -12 52 -94 63 -98 4 -2 7 -9 7 -16 0 -21
123 -141 165 -161 22 -10 63 -20 90 -23 45 -4 54 -1 85 27 26 23 45 31 75 31
52 0 117 18 110 30 -4 6 -38 7 -80 3 -75 -6 -75 -6 -75 19 0 13 -11 47 -25 74
-14 27 -25 53 -25 58 0 10 -71 157 -80 166 -3 3 -22 40 -44 82 -73 147 -175
294 -284 412 -40 43 -72 80 -70 81 2 2 44 10 93 18 50 8 97 17 105 18 11 3 13
-5 11 -32 -2 -31 2 -40 28 -59 25 -17 40 -20 80 -16 26 3 59 9 72 14 13 5 36
12 52 16 24 6 27 4 27 -19 0 -46 27 -83 64 -91 64 -12 177 7 271 46 34 14 59
23 73 26 57 12 210 141 243 207 25 47 13 47 -59 -1 -161 -108 -330 -180 -459
-197 -45 -7 -52 -5 -62 13 -18 33 -14 40 38 66 26 14 79 46 117 72 49 33 81
48 110 51 50 4 179 74 247 133 43 38 60 70 38 70 -6 0 -98 -43 -205 -95 -108
-52 -198 -95 -201 -95 -3 0 -48 -20 -101 -45 -52 -25 -101 -45 -109 -45 -8 0
-16 -4 -20 -9 -3 -5 -30 -15 -61 -22 -30 -7 -57 -16 -60 -21 -7 -11 -42 -10
-49 2 -6 10 37 71 84 118 23 24 73 55 171 110 88 49 150 94 219 161 68 64 85
91 59 91 -11 0 -99 -51 -296 -172 -85 -52 -97 -56 -106 -32 -7 19 0 34 17 34
15 0 246 116 267 134 20 17 171 101 196 109 91 28 120 49 76 55 -17 3 -21 8
-17 23 8 26 -25 25 -84 -1 -48 -22 -65 -25 -56 -10 33 53 -408 -137 -454 -196
-10 -13 -26 -24 -34 -24 -8 0 -20 -7 -28 -16 -7 -8 -25 -22 -41 -30 -22 -12
-28 -21 -28 -48 0 -22 6 -36 16 -40 11 -4 13 -13 8 -28 -4 -13 -9 -25 -13 -28
-3 -3 -11 -14 -17 -25 -6 -11 -23 -21 -38 -23 -14 -2 -30 -11 -36 -21 -5 -10
-24 -24 -42 -32 -18 -7 -37 -19 -43 -25 -5 -7 -36 -18 -68 -24 -47 -9 -61 -9
-75 2 -30 23 -37 28 -57 42 -18 13 -18 15 16 29 66 27 93 107 31 93 -15 -4
-31 -13 -37 -20 -12 -15 -49 -36 -64 -36 -6 0 -11 7 -11 15 0 8 -4 15 -10 15
-5 0 -10 9 -10 21 0 28 -53 79 -82 79 -13 0 -28 4 -34 8 -7 7 -103 32 -139 37
-5 1 -17 4 -25 7 -8 3 -42 10 -75 16 -33 6 -94 20 -135 32 -88 25 -210 38
-210 23 0 -6 6 -16 14 -22 18 -15 150 -61 175 -61 10 0 45 -12 77 -26 69 -31
231 -84 257 -84 22 0 89 -34 112 -56 13 -14 14 -19 3 -24 -21 -10 -377 6 -433
20 -113 28 -204 62 -365 137 -148 69 -143 66 -172 125 -15 31 -36 63 -48 71
-22 15 -21 16 26 23 27 4 87 20 133 35 112 38 216 40 322 5 65 -21 217 -80
274 -106 56 -25 209 -81 251 -91 29 -7 63 -24 82 -43 30 -27 33 -35 28 -69 -4
-20 -5 -37 -3 -37 18 0 67 24 68 33 4 57 -5 106 -27 134 -13 17 -24 34 -24 37
0 3 24 6 53 6 70 1 134 30 143 66 11 42 -14 77 -63 89 -22 6 -41 15 -40 20 0
14 40 76 106 164 83 112 101 140 101 156 0 8 4 15 9 15 20 0 83 104 93 154 14
67 -2 104 -54 122 -38 13 -118 1 -118 -17 0 -5 -7 -9 -15 -9 -8 0 -28 -21 -46
-47 -18 -27 -40 -57 -49 -68 -10 -11 -40 -61 -66 -111 -27 -50 -78 -141 -114
-202 l-65 -111 -109 -1 c-103 0 -164 -9 -213 -33 -17 -8 -40 -4 -100 16 -43
15 -88 27 -99 27 -11 0 -24 3 -28 7 -9 9 -10 9 -106 12 -41 2 -68 5 -60 8 15
4 29 10 80 31 14 5 45 25 70 43 39 29 42 33 25 40 -38 15 -76 9 -138 -21 l-62
-31 34 30 c28 24 31 32 19 36 -9 4 -29 5 -45 3 -26 -3 -28 -6 -28 -48 0 -41
-2 -45 -25 -45 -21 0 -25 -4 -23 -27 1 -24 -2 -28 -24 -28 -20 0 -23 3 -15 13
7 8 7 18 2 27 -6 8 -10 25 -10 38 0 33 -24 37 -61 10 -22 -16 -33 -19 -36 -10
-7 20 -23 14 -33 -14 -7 -16 -16 -24 -24 -21 -8 3 -20 -1 -26 -9 -7 -8 -20
-14 -30 -14 -22 0 -53 88 -44 124 3 15 -1 29 -11 40 -12 12 -15 25 -10 47 9
39 -11 80 -34 72 -14 -4 -13 -2 2 10 28 23 20 97 -11 97 -8 0 -24 -7 -34 -17
-10 -9 -21 -13 -24 -10 -4 3 10 16 30 28 39 22 52 53 42 95 -5 20 -11 24 -29
19 -20 -6 -20 -5 5 17 17 15 29 37 33 66 6 38 5 42 -14 42 -12 0 -43 -15 -69
-33 -69 -48 -75 -52 -70 -37 4 13 74 57 130 82 40 18 49 73 55 333 6 242 2
275 -36 275 -16 0 -19 13 -24 123 -3 67 -8 140 -11 162 -3 22 -8 59 -11 83 -8
53 -48 212 -69 271 -18 50 -16 57 23 66 16 3 35 13 42 21 6 8 22 14 35 14 12
0 25 4 28 9 3 4 33 14 66 21 33 7 60 17 60 21 0 5 9 9 21 9 12 0 35 6 52 14
18 8 66 29 107 46 41 17 81 37 90 43 8 7 34 23 58 36 l43 23 52 -49 c29 -26
55 -57 59 -68 14 -45 7 -99 -21 -159 -56 -119 -61 -131 -70 -176 -6 -25 -13
-58 -17 -73 -6 -27 -2 -43 32 -111 13 -26 13 -30 -3 -41 -10 -8 -16 -15 -13
-18 26 -23 96 -67 106 -67 7 0 16 9 19 20 7 23 28 26 44 6 10 -11 7 -18 -11
-31 l-23 -16 30 -22 c16 -12 38 -27 50 -32 31 -16 29 -48 -6 -100 -40 -59 -45
-124 -14 -168 16 -22 186 -117 210 -117 18 0 165 -95 281 -182 72 -54 138 -98
148 -98 9 0 22 -11 28 -25 6 -14 17 -25 25 -25 15 0 18 36 3 45 -5 3 -10 11
-10 17 0 14 67 -37 107 -81 17 -20 34 -33 38 -29 9 9 -50 124 -86 169 -38 47
-122 141 -142 158 -9 9 -30 27 -45 41 -53 48 -180 130 -268 171 -49 24 -92 47
-96 53 -4 6 -5 45 -2 86 5 73 5 75 -13 54 -10 -12 -25 -32 -33 -44 -41 -62
-47 -66 -66 -48 -16 16 -16 18 14 35 35 20 39 36 18 79 -8 16 -17 40 -21 53
-7 21 -5 23 18 17 14 -3 32 -9 41 -12 9 -3 16 -2 16 4 0 5 -58 48 -129 96 -72
47 -137 96 -145 108 -20 28 -20 56 -2 144 8 38 19 98 25 133 12 72 23 90 45
72 7 -6 37 -14 65 -18 28 -3 54 -10 57 -14 3 -5 20 -9 39 -9 41 0 42 6 50 161
3 63 8 138 11 168 4 47 3 52 -11 41 -13 -11 -15 1 -15 106 0 123 6 133 33 52
18 -55 61 -114 99 -138 14 -8 44 -39 66 -68 58 -78 178 -173 272 -218 100 -46
160 -59 275 -57 126 1 146 3 160 13 6 4 28 11 50 15 40 7 87 29 165 79 47 30
77 54 186 144 35 29 64 48 64 43 0 -7 9 -7 26 -1 25 10 26 9 21 -22 -19 -128
-43 -225 -71 -290 -19 -44 -6 -51 31 -16 22 20 34 13 13 -8 -5 -5 -6 -15 0
-23 7 -12 19 -13 82 -1 148 26 231 53 299 96 65 40 152 118 181 161 94 141
122 189 131 226 5 23 14 47 19 53 11 15 38 239 38 320 0 88 11 184 21 178 5
-3 11 7 15 22 7 28 -2 429 -10 442 -2 4 -7 43 -11 87 -8 100 -41 314 -54 348
-5 14 -13 45 -16 68 -14 94 -61 260 -94 334 -5 11 -24 51 -41 89 -47 102 -103
181 -197 272 -93 93 -167 147 -268 199 -81 43 -191 86 -198 78 -3 -2 -16 1
-28 8 -14 7 -74 13 -150 14 -69 2 -135 5 -145 7 -11 3 -30 3 -44 1z m-4130
-908 c0 -8 -2 -15 -4 -15 -2 0 -6 7 -10 15 -3 8 -1 15 4 15 6 0 10 -7 10 -15z
m4363 -46 c112 -47 232 -133 321 -228 23 -25 48 -52 56 -61 48 -50 100 -120
100 -132 0 -7 7 -23 15 -35 9 -13 16 -53 18 -109 3 -49 12 -113 22 -142 15
-44 17 -76 12 -190 -5 -150 -22 -232 -68 -330 -16 -35 -29 -65 -29 -68 0 -3
-8 -24 -19 -47 -10 -23 -22 -58 -26 -77 -10 -47 -27 -79 -62 -115 -16 -16 -49
-54 -72 -84 -25 -33 -51 -55 -64 -57 -22 -2 -109 -36 -205 -80 -28 -13 -80
-36 -115 -50 -34 -14 -66 -30 -72 -34 -5 -4 -54 -16 -108 -26 -125 -23 -206
-13 -332 41 -50 21 -92 41 -95 45 -7 9 -125 90 -190 130 -30 18 -63 33 -73 32
-22 -1 -37 32 -79 171 -27 91 -28 100 -14 122 31 47 49 161 42 264 -5 72 -3
112 9 161 33 137 70 260 96 317 10 23 19 44 19 47 0 18 133 197 200 269 75 80
183 163 242 186 24 9 148 65 184 83 35 17 86 26 152 27 50 1 79 -6 135 -30z
m494 -47 c8 -5 -14 -21 -63 -45 -56 -28 -73 -33 -65 -20 25 49 97 85 128 65z
m-17 -88 c0 -3 -11 -19 -24 -34 l-24 -29 -21 23 -22 24 38 10 c49 13 53 13 53
6z m-1217 -69 c-21 -29 -38 -33 -23 -6 8 16 20 25 38 30 2 1 -5 -10 -15 -24z
m1382 -15 c3 -6 -2 -13 -12 -16 -10 -3 -40 -15 -66 -26 -27 -11 -51 -17 -54
-14 -3 2 14 18 38 35 42 31 82 40 94 21z m-54 -108 c-5 -10 -17 -24 -25 -31
-12 -10 -17 -9 -26 9 -15 27 -5 40 31 40 26 0 28 -2 20 -18z m-4161 -817 c0
-15 -10 -31 -25 -41 -28 -18 -30 -18 -39 11 -4 15 1 24 22 37 37 22 42 22 42
-7z m3850 -819 c0 -8 -6 -16 -14 -19 -10 -4 -12 0 -9 14 6 22 23 26 23 5z
m-4290 -386 c0 -5 -9 -10 -20 -10 -11 0 -20 5 -20 10 0 6 9 10 20 10 11 0 20
-4 20 -10z m-65 -10 c3 -5 -1 -10 -10 -10 -9 0 -13 5 -10 10 3 6 8 10 10 10 2
0 7 -4 10 -10z m1985 -1117 c-1 -13 -89 -63 -95 -54 -2 5 9 14 25 21 16 7 35
18 41 26 12 15 29 19 29 7z m-40 -148 c-6 -8 -20 -17 -31 -20 -11 -4 -19 -15
-19 -28 0 -28 28 -69 41 -62 5 4 9 1 9 -4 0 -6 -5 -11 -10 -11 -15 0 -1 -51
21 -76 11 -11 19 -32 19 -46 0 -41 24 -54 65 -35 40 19 47 7 10 -17 -31 -20
-32 -39 -4 -65 21 -19 19 -41 -3 -41 -6 0 -42 33 -79 73 -69 72 -91 115 -84
167 1 14 3 56 4 94 0 38 4 66 7 63 4 -3 16 0 28 8 26 19 42 19 26 0z m1626 0
c6 -15 -72 -141 -102 -166 -8 -6 -14 -18 -14 -26 0 -7 -7 -16 -15 -19 -8 -4
-15 -10 -15 -15 0 -5 -16 -31 -35 -58 -19 -26 -35 -51 -35 -55 0 -4 -11 -23
-24 -42 -18 -27 -25 -32 -34 -21 -9 10 -1 29 33 81 25 37 45 69 45 70 0 8 105
196 127 229 27 38 59 49 69 22z m-1556 -75 c0 -5 -13 -16 -30 -25 -38 -19 -40
-6 -2 17 32 21 32 21 32 8z m17 -110 c-27 -22 -37 -25 -37 -12 0 5 10 14 23
20 35 17 42 14 14 -8z m133 -206 c0 -27 23 -42 43 -26 19 15 57 24 57 14 0 -5
-29 -28 -65 -52 -66 -42 -99 -47 -93 -13 1 10 -5 29 -14 42 -19 27 -15 41 11
41 10 0 24 7 31 15 16 19 30 10 30 -21z m170 16 c0 -5 -9 -10 -21 -10 -11 0
-17 5 -14 10 3 6 13 10 21 10 8 0 14 -4 14 -10z m950 -74 c0 -7 -6 -19 -13
-25 -8 -6 -19 -29 -26 -51 -11 -37 -14 -40 -39 -34 -58 14 -57 27 4 77 59 49
74 56 74 33z m-140 -24 c0 -4 -21 -45 -26 -50 -4 -5 -124 42 -124 49 0 3 34 5
75 5 41 -1 75 -2 75 -4z m275 -41 c3 -5 -21 -28 -52 -51 -37 -26 -59 -37 -62
-29 -2 7 5 20 16 28 10 9 27 30 38 48 15 25 22 30 36 22 10 -5 20 -13 24 -18z
m-2535 -40 c34 -30 42 -42 33 -52 -6 -8 -16 -31 -22 -51 -7 -21 -16 -38 -19
-38 -4 0 -17 33 -29 74 -13 41 -26 81 -29 90 -11 28 19 17 66 -23z m110 -76
c13 -14 27 -25 31 -25 5 0 28 -14 53 -30 24 -17 61 -37 80 -45 20 -9 36 -19
36 -23 0 -4 24 -20 53 -36 28 -16 54 -32 57 -36 3 -3 30 -21 60 -40 30 -19 57
-38 58 -42 2 -5 9 -8 16 -8 7 0 23 -11 36 -25 13 -14 27 -25 32 -25 5 0 14 -5
21 -10 39 -33 91 -70 97 -70 8 0 60 -43 102 -83 10 -10 30 -22 43 -27 14 -5
25 -15 25 -21 0 -7 -6 -8 -17 -3 -43 20 -384 14 -631 -10 -29 -3 -118 -8 -199
-10 l-148 -5 54 27 c86 44 88 52 62 239 l-22 158 26 64 c14 36 25 72 25 81 0
37 19 38 50 5z m935 15 c4 -6 -5 -10 -20 -10 -15 0 -24 4 -20 10 3 6 12 10 20
10 8 0 17 -4 20 -10z m63 -53 c11 -12 28 -38 36 -58 14 -33 13 -39 -3 -70 -24
-44 -92 -75 -146 -65 -51 10 -88 51 -81 91 10 50 99 119 162 124 6 1 20 -9 32
-22z m317 -82 c33 -30 66 -55 73 -55 6 0 12 -4 12 -8 0 -5 39 -28 88 -52 48
-24 99 -50 114 -57 14 -7 39 -13 54 -13 15 0 35 -6 43 -13 28 -24 206 -45 356
-43 98 1 154 -3 185 -13 52 -16 127 -64 185 -116 95 -87 125 -117 125 -123 0
-4 20 -29 45 -57 24 -27 48 -59 51 -70 4 -11 17 -30 30 -42 13 -12 24 -24 24
-27 0 -3 23 -44 50 -92 28 -48 50 -89 50 -91 0 -2 32 -68 70 -147 39 -78 70
-147 70 -154 0 -17 -36 -15 -68 5 -33 21 -92 81 -111 114 -8 13 -37 62 -64
109 -133 231 -317 486 -343 476 -7 -3 -16 -1 -19 4 -4 6 -14 10 -24 10 -16 0
-17 -13 -15 -145 1 -80 5 -164 9 -188 11 -70 37 -181 46 -191 10 -12 -40 -56
-64 -56 -2 0 -7 36 -10 80 -4 58 -17 114 -48 202 -23 68 -45 125 -49 128 -4 3
-10 14 -14 25 -9 27 -45 69 -53 61 -3 -3 -1 -50 5 -103 6 -54 14 -149 18 -212
3 -62 12 -140 18 -172 l13 -59 -36 0 c-35 0 -111 17 -111 25 0 2 4 15 10 29
10 27 -2 91 -40 212 -29 94 -56 134 -91 134 -15 0 -34 7 -41 15 -31 38 -40 45
-54 45 -21 0 -9 -69 48 -273 35 -125 47 -182 40 -189 -15 -15 -64 18 -132 86
-30 31 -59 56 -63 56 -4 0 -17 9 -29 20 -29 26 -129 77 -181 90 -23 7 -59 22
-79 36 -21 13 -41 24 -46 24 -5 0 -17 9 -27 20 -10 11 -22 20 -27 20 -5 0 -22
16 -39 35 -17 19 -37 35 -45 35 -8 0 -14 5 -14 11 0 15 -146 155 -220 212 -30
23 -69 56 -86 73 l-32 32 67 7 c121 13 233 90 281 193 28 58 35 155 15 176
-20 19 -19 25 3 19 10 -2 45 -29 77 -58z m1489 49 c20 -8 22 -64 3 -64 -8 0
-22 9 -32 20 -15 16 -15 22 -5 35 14 17 13 17 34 9z m-74 -244 c0 -5 -5 -10
-11 -10 -5 0 -7 5 -4 10 3 6 8 10 11 10 2 0 4 -4 4 -10z"/>
<path d="M10075 7028 c-51 -26 -80 -59 -63 -69 7 -4 51 -8 98 -8 47 0 107 -7
135 -16 28 -8 53 -15 58 -15 15 0 6 30 -18 59 -54 63 -143 84 -210 49z"/>
<path d="M10770 6958 c-43 -12 -100 -54 -100 -74 0 -11 14 -14 63 -13 34 1
104 -2 155 -6 89 -7 92 -7 92 13 0 27 -42 56 -109 76 -30 9 -57 16 -60 15 -3
0 -22 -5 -41 -11z"/>
<path d="M10479 6734 c-45 -51 -87 -198 -90 -311 -2 -82 -1 -80 -51 -117 -21
-16 -38 -32 -38 -37 0 -5 26 -9 58 -9 75 0 102 25 108 97 10 135 14 176 24
264 7 53 10 104 8 114 -3 16 -4 16 -19 -1z"/>
<path d="M9994 6726 c-32 -23 -47 -69 -39 -121 5 -37 11 -48 32 -56 36 -13 58
-4 82 37 23 39 28 102 9 127 -19 24 -60 30 -84 13z"/>
<path d="M10814 6662 c-22 -14 -44 -72 -44 -114 0 -57 23 -90 58 -84 15 2 30
5 34 5 4 1 17 19 28 41 38 75 18 160 -38 160 -15 0 -32 -4 -38 -8z"/>
<path d="M9953 6117 c-3 -4 2 -16 10 -25 8 -9 18 -26 21 -38 7 -25 93 -114
109 -114 6 0 18 -6 26 -14 23 -20 108 -44 171 -49 108 -9 323 68 336 119 13
50 -12 60 -176 69 -110 6 -177 14 -373 43 -65 10 -121 14 -124 9z m164 -88
c45 -17 167 -36 250 -38 113 -3 120 -15 21 -36 -95 -20 -161 -12 -234 27 -80
43 -104 73 -37 47z"/>
<path d="M7605 3053 c-92 -49 -7 -84 120 -49 64 18 117 45 110 57 -11 16 -197
10 -230 -8z"/>
<path d="M4165 8348 c-163 -30 -299 -64 -365 -90 -149 -59 -192 -84 -335 -189
-54 -41 -169 -176 -203 -240 -18 -34 -30 -64 -28 -66 3 -3 35 26 73 64 37 38
93 89 123 113 30 24 62 50 70 58 33 29 150 100 230 140 75 37 136 57 285 94
140 35 356 51 495 37 163 -16 395 -57 472 -85 50 -17 53 -17 38 1 -48 58 -400
176 -471 158 -10 -3 -19 0 -19 6 0 14 -290 13 -365 -1z"/>
<path d="M6933 8309 c-17 -27 -43 -91 -57 -142 -14 -50 -30 -105 -35 -122 -6
-16 -15 -61 -21 -100 -6 -38 -15 -83 -20 -100 -9 -30 -30 -209 -35 -300 -2
-27 -6 -89 -10 -136 -5 -58 -4 -92 4 -106 8 -16 8 -30 1 -49 -8 -20 -8 -36 1
-56 l11 -28 29 21 c16 11 29 15 29 9 0 -6 -13 -19 -30 -28 -24 -14 -30 -24
-30 -52 0 -49 12 -66 32 -46 9 8 27 18 40 21 23 6 26 2 42 -54 12 -41 22 -61
33 -61 14 0 14 20 7 183 -5 100 -9 223 -8 272 0 117 30 465 45 534 6 30 9 76
6 101 -3 26 -2 51 3 56 13 13 17 226 5 230 -5 1 -24 -20 -42 -47z"/>
<path d="M12991 8318 c-69 -35 -212 -168 -277 -258 -39 -53 -136 -240 -149
-287 -12 -43 13 -23 61 50 55 84 134 189 149 199 5 4 30 35 55 69 59 81 151
180 201 215 37 25 50 44 30 44 -4 0 -36 -14 -70 -32z"/>
<path d="M14113 8298 c0 -15 13 -33 39 -51 38 -27 39 -30 33 -67 -6 -36 -3
-44 38 -97 45 -58 101 -151 136 -228 69 -150 83 -185 101 -250 29 -108 79
-391 79 -457 1 -36 4 -46 15 -42 17 7 35 72 39 144 1 30 5 48 9 40 17 -43 39
-132 44 -188 8 -77 21 -97 57 -88 69 17 52 263 -35 496 -60 165 -102 253 -192
407 -40 68 -46 85 -36 98 18 21 -15 69 -92 135 -35 30 -72 63 -83 75 -11 11
-41 37 -66 58 -53 43 -87 49 -86 15z"/>
<path d="M13856 8281 c-3 -5 7 -17 22 -26 15 -10 56 -44 92 -75 36 -32 81 -70
100 -86 19 -16 56 -50 82 -75 48 -46 66 -45 43 1 -17 33 -114 124 -235 221
-46 37 -95 56 -104 40z"/>
<path d="M5144 8178 c164 -107 337 -226 359 -246 22 -21 27 -23 27 -8 0 25
-93 114 -177 169 -80 53 -141 82 -193 91 -31 6 -33 5 -16 -6z"/>
<path d="M13520 8175 c65 -17 129 -20 114 -5 -5 5 -46 12 -89 15 l-80 5 55
-15z"/>
<path d="M14670 8103 l92 -88 19 -165 c38 -335 46 -383 68 -402 18 -13 21 -28
21 -85 0 -76 -31 -220 -55 -257 -12 -17 -13 -26 -5 -31 14 -9 67 40 76 69 4
12 10 23 13 26 3 3 17 37 30 75 21 62 24 88 23 220 0 153 -18 283 -49 355 -8
19 -21 50 -29 68 -8 18 -14 46 -14 61 0 28 -70 131 -88 131 -4 0 -23 14 -42
32 -55 50 -101 78 -128 78 -21 0 -12 -12 68 -87z m197 -380 c-3 -10 -5 -2 -5
17 0 19 2 27 5 18 2 -10 2 -26 0 -35z"/>
<path d="M4860 8133 c1 -11 200 -107 206 -100 8 7 -10 39 -33 58 -32 29 -174
62 -173 42z"/>
<path d="M5300 7974 c256 -265 345 -396 423 -624 43 -125 82 -400 57 -400 -6
0 -9 4 -5 9 18 31 -89 331 -139 391 -7 8 -16 22 -19 31 -17 50 -207 270 -207
240 0 -7 21 -52 46 -99 113 -211 174 -341 198 -423 20 -68 21 -66 -11 -74 -49
-12 -92 -45 -119 -91 -14 -24 -23 -51 -20 -60 5 -12 24 -3 93 45 98 67 97 67
109 -23 3 -23 8 -57 11 -76 3 -19 5 -120 5 -225 0 -222 -19 -331 -108 -610
-85 -265 -162 -350 -385 -425 -84 -29 -249 -31 -324 -5 -81 28 -342 161 -376
191 -47 42 -149 321 -149 407 0 61 32 192 60 247 11 21 54 68 97 106 172 152
386 411 479 579 85 153 109 207 155 350 31 95 71 281 67 316 -3 27 -8 18 -37
-62 -65 -183 -144 -375 -187 -457 -43 -79 -111 -192 -123 -202 -3 -3 -22 -27
-41 -55 -19 -27 -66 -88 -104 -135 -179 -217 -334 -350 -539 -464 -116 -64
-193 -152 -264 -301 -36 -76 -38 -106 -6 -67 126 150 188 217 239 256 33 25
64 46 68 46 3 0 24 11 46 25 54 34 63 32 44 -12 -10 -24 -18 -77 -21 -143 -4
-89 -2 -115 16 -170 31 -93 60 -167 89 -230 34 -73 62 -183 62 -241 0 -64 -83
-385 -110 -424 -4 -5 -12 -26 -19 -45 -18 -53 -35 -90 -42 -90 -4 0 -9 15 -12
33 -12 71 -27 130 -42 158 -8 16 -22 43 -31 59 -8 17 -13 30 -9 30 3 0 -1 13
-10 30 -12 24 -13 42 -5 97 15 105 13 114 -15 68 -14 -22 -25 -48 -25 -57 0
-31 -14 -20 -55 40 l-38 57 12 125 c24 255 24 238 8 210 -12 -21 -46 -228 -47
-288 -1 -12 -7 -8 -22 12 -84 113 -97 87 -31 -61 27 -59 69 -138 95 -173 45
-63 76 -124 116 -225 16 -39 19 -64 15 -115 -8 -102 23 -255 74 -360 14 -30
50 -103 78 -161 63 -128 79 -188 77 -297 -1 -116 -32 -290 -69 -392 -28 -77
-29 -78 -116 -123 -68 -35 -68 -35 -77 -14 -5 12 -11 39 -15 59 -11 69 -25 52
-25 -31 l0 -80 -52 -26 c-29 -14 -64 -33 -78 -43 l-24 -17 18 31 c13 21 16 38
11 50 -5 11 -10 35 -12 54 -6 51 -18 56 -31 13 -8 -28 -49 -77 -148 -178 -142
-146 -190 -209 -249 -326 -35 -70 -44 -129 -29 -187 10 -35 26 -21 28 23 3 43
64 176 84 183 9 3 11 -3 6 -22 -3 -15 -1 -32 5 -40 8 -9 10 -28 5 -51 -5 -30
-2 -40 17 -61 26 -28 57 -31 66 -6 51 142 159 301 242 355 112 73 152 97 164
97 7 0 20 8 28 18 9 9 53 42 98 72 175 118 208 151 161 163 -28 7 -25 35 5 49
14 6 25 15 25 20 0 4 11 8 25 8 15 0 25 6 25 14 0 25 -32 28 -62 6 -15 -11
-30 -20 -34 -20 -11 0 7 53 27 78 10 14 19 36 19 49 0 13 7 37 15 52 13 26 26
87 44 202 7 46 79 207 94 208 4 1 7 -9 7 -21 0 -13 7 -36 15 -52 8 -15 15 -34
15 -42 0 -7 10 -19 22 -25 18 -10 24 -8 35 7 7 10 13 21 13 26 0 4 4 8 9 8 5
0 35 12 67 27 33 15 72 26 90 24 18 -1 36 4 43 13 8 9 31 21 52 26 27 7 43 20
54 40 15 28 66 72 82 69 20 -3 34 2 28 11 -9 15 14 50 41 60 13 5 24 16 24 24
0 8 9 21 20 29 10 7 29 26 41 41 l22 28 -23 18 c-35 26 -20 54 24 47 29 -5 35
-2 40 16 9 35 8 36 -29 24 -19 -6 -35 -14 -35 -19 0 -5 -5 -6 -10 -3 -15 9 -5
21 47 49 27 15 54 24 65 21 10 -4 18 -2 18 3 0 5 12 14 27 21 36 17 14 31 -47
31 -130 0 -194 -59 -261 -240 -19 -50 -72 -105 -138 -142 -66 -37 -207 -132
-238 -160 -21 -20 -21 -20 -32 0 -6 12 -11 27 -11 34 0 7 -14 42 -30 76 -17
35 -30 72 -30 81 0 10 -12 28 -27 41 -16 13 -83 75 -150 137 -108 100 -143
126 -143 108 0 -18 47 -93 98 -157 44 -55 74 -81 120 -106 34 -18 62 -35 62
-37 0 -2 -18 -39 -40 -81 -22 -43 -40 -87 -41 -98 0 -12 -11 9 -23 45 -13 36
-35 87 -48 115 -14 27 -51 101 -83 164 -71 141 -89 190 -75 204 5 5 10 27 10
48 0 29 15 64 60 141 32 56 75 143 96 192 20 50 39 97 44 105 34 69 56 219 42
293 -10 48 -4 58 18 32 14 -17 160 -115 205 -138 31 -15 110 -44 155 -55 14
-4 73 -6 133 -5 126 1 218 25 315 81 35 21 74 43 87 50 49 26 135 145 176 242
l19 45 -6 -55 c-12 -118 -12 -138 -2 -230 6 -52 17 -120 25 -150 36 -132 45
-278 25 -399 -38 -229 -75 -398 -98 -448 -13 -31 -22 -58 -19 -61 9 -9 56 42
71 78 8 19 26 76 40 125 35 125 53 163 81 170 20 5 23 12 25 53 4 121 -6 317
-22 401 -14 72 -36 165 -49 204 -21 63 -32 241 -17 266 3 5 34 1 68 -9 53 -14
64 -21 66 -41 2 -13 16 -58 31 -99 16 -41 33 -93 38 -115 10 -36 23 -76 44
-130 8 -23 65 -221 79 -276 5 -20 24 -67 41 -104 22 -49 34 -64 42 -56 17 17
-7 166 -46 284 -19 56 -58 176 -88 266 -42 130 -63 180 -101 236 -47 70 -48
73 -63 195 -13 111 -26 152 -45 134 -3 -3 -7 -49 -10 -102 -4 -77 -8 -97 -20
-97 -11 0 -15 11 -14 40 0 69 24 264 35 293 21 55 48 289 48 412 0 69 4 181 9
250 13 163 -4 390 -29 406 -5 3 -9 16 -9 29 0 28 -35 124 -68 185 -14 25 -36
67 -49 95 -65 130 -319 388 -443 450 -28 14 -13 -6 70 -91z m520 -2097 c0 -20
-25 1 -28 24 -2 23 -2 23 13 5 8 -11 15 -24 15 -29z m-557 -1241 c6 -16 -11
-36 -30 -36 -13 0 -18 32 -6 43 11 12 31 8 36 -7z m-999 -1049 c16 -12 16 -15
-10 -40 -15 -15 -35 -26 -43 -25 -26 5 -25 44 1 62 27 19 29 19 52 3z"/>
<path d="M13665 8018 c4 -18 19 -51 33 -72 39 -57 184 -218 226 -249 34 -26
96 -47 96 -32 0 3 -28 39 -63 78 -34 40 -76 88 -92 106 -84 97 -180 196 -193
199 -11 3 -13 -3 -7 -30z"/>
<path d="M8780 7958 c0 -68 78 -316 102 -326 26 -11 -6 -58 -65 -97 -8 -5 -49
-37 -91 -70 -85 -68 -87 -76 -35 -151 16 -23 29 -49 29 -56 -1 -7 -33 -33 -73
-57 -78 -48 -207 -150 -207 -163 0 -4 -5 -8 -10 -8 -16 0 -175 -157 -246 -242
-35 -42 -80 -103 -100 -135 -20 -32 -38 -60 -40 -62 -2 -2 -11 4 -20 14 -9 9
-20 12 -23 7 -7 -10 -52 -35 -54 -30 -1 2 -10 17 -19 35 -10 17 -18 36 -18 42
0 16 27 13 56 -5 33 -22 39 -13 14 19 -11 14 -20 28 -20 31 0 13 25 5 47 -16
13 -12 23 -16 23 -9 0 63 -193 232 -362 316 -90 45 -90 45 -94 92 -4 50 -21
96 -33 89 -13 -8 -41 -100 -39 -128 1 -13 -2 -42 -6 -65 -7 -36 -5 -43 13 -52
11 -7 33 -9 48 -6 26 6 27 5 10 -9 -22 -17 -16 -45 13 -63 15 -10 25 -10 47
-1 16 7 31 17 35 23 5 6 8 3 8 -6 0 -9 -11 -21 -25 -27 -31 -14 -31 -23 1 -53
l25 -24 52 28 c29 15 56 27 60 27 13 0 -14 -24 -50 -45 -40 -23 -41 -37 -7
-64 l27 -21 53 31 c65 37 73 25 9 -13 -50 -31 -54 -39 -25 -68 21 -21 55 -26
65 -10 3 6 11 10 17 10 6 0 2 -10 -10 -23 -26 -28 -20 -39 48 -82 25 -15 57
-42 72 -59 25 -28 29 -29 38 -13 6 9 20 17 30 17 15 0 20 7 20 28 0 36 29 71
67 81 21 5 29 15 33 37 4 24 10 29 34 30 28 1 49 21 39 37 -7 12 17 27 45 27
12 0 22 4 22 9 0 5 27 35 60 67 60 58 74 79 44 67 -14 -5 -14 -3 -3 16 16 24
41 29 32 6 -5 -13 -2 -14 20 -4 34 15 43 39 15 39 -20 0 -21 1 -3 20 10 11 22
20 26 20 5 0 64 57 132 127 119 122 125 126 142 109 12 -11 21 -14 28 -7 15
15 -14 103 -35 109 -10 2 -18 9 -18 14 0 5 -12 25 -26 44 -15 19 -25 36 -23
38 2 2 47 23 99 47 52 24 101 49 108 56 8 7 17 11 22 8 15 -9 32 24 39 77 6
45 4 60 -15 93 -12 22 -53 102 -90 178 -37 75 -72 137 -76 137 -4 0 -8 -15 -8
-32z m-896 -1194 c3 -8 2 -12 -4 -9 -6 3 -10 10 -10 16 0 14 7 11 14 -7z m141
-231 c0 -18 -1 -33 -2 -33 -1 0 -13 4 -27 10 -41 15 -33 64 9 58 15 -2 20 -10
20 -35z"/>
<path d="M13195 7859 c-5 -29 -1 -49 23 -97 77 -154 163 -272 199 -272 21 0
15 19 -17 60 -16 21 -30 41 -30 44 0 4 -31 61 -70 127 -38 66 -70 123 -70 128
0 4 -6 16 -14 26 -13 19 -15 18 -21 -16z"/>
<path d="M4884 7790 c-12 -25 -27 -63 -34 -85 -7 -22 -16 -44 -20 -50 -4 -5
-11 -21 -15 -35 -16 -53 -98 -224 -185 -385 -24 -44 -67 -125 -95 -180 -28
-55 -73 -135 -98 -178 -26 -43 -47 -79 -47 -82 0 -8 -93 -139 -133 -188 -22
-26 -37 -51 -33 -54 19 -19 241 251 317 384 13 23 49 86 80 140 31 54 65 116
76 138 11 22 24 49 30 60 61 111 114 251 153 402 35 137 37 184 4 113z"/>
<path d="M12830 7726 c0 -46 36 -156 51 -156 5 0 9 -6 9 -14 0 -15 92 -135
151 -196 45 -48 154 -132 204 -159 71 -38 98 -55 217 -134 186 -124 377 -207
509 -223 45 -5 59 -3 72 11 32 31 22 41 -78 80 -142 56 -281 139 -465 275
-292 217 -367 277 -468 375 -57 55 -110 101 -116 103 -7 1 -23 20 -37 42 -32
53 -49 52 -49 -4z"/>
<path d="M3149 7632 c-51 -66 -97 -145 -103 -179 -3 -15 -9 -44 -15 -63 -10
-32 -28 -133 -37 -205 -2 -16 -8 -64 -13 -105 -13 -96 -13 -316 -1 -400 9 -61
16 -98 54 -295 20 -99 23 -290 6 -370 -11 -52 -36 -118 -72 -192 -6 -12 -25
-27 -41 -33 -45 -15 -67 -39 -67 -73 0 -26 3 -29 25 -25 19 4 25 1 25 -12 0
-18 -33 -54 -42 -45 -3 3 -8 -11 -11 -32 -5 -26 -2 -42 8 -53 19 -21 19 -39 0
-46 -25 -10 -17 -32 13 -36 21 -2 28 -9 30 -32 3 -27 2 -29 -27 -23 -19 4 -31
2 -31 -4 0 -6 -4 -7 -10 -4 -5 3 -10 15 -10 25 0 51 -109 330 -129 330 -3 0
-11 10 -16 22 -11 24 -41 46 -50 36 -3 -3 1 -23 9 -44 14 -37 72 -228 82 -269
3 -11 9 -29 14 -40 5 -11 29 -83 52 -159 40 -127 68 -180 68 -127 0 37 21 69
41 64 17 -5 18 -12 13 -62 -7 -72 -37 -165 -84 -266 -59 -126 -70 -152 -70
-168 0 -9 -4 -19 -10 -22 -5 -3 -10 -19 -10 -36 0 -16 -4 -29 -8 -29 -5 0 -15
-26 -22 -57 -7 -32 -19 -78 -27 -103 -43 -133 -36 -315 16 -423 l29 -60 -70
-72 c-80 -84 -127 -144 -128 -163 0 -34 55 -21 95 23 22 22 84 114 104 153 7
13 16 22 21 20 15 -6 83 -103 118 -168 19 -36 40 -76 48 -90 40 -75 58 -131
62 -192 3 -46 8 -68 17 -68 15 0 26 78 19 141 -7 60 -44 200 -61 224 -7 11
-13 27 -13 35 0 9 -29 58 -65 110 -121 176 -143 259 -116 438 20 136 100 389
177 562 9 19 18 44 20 55 18 81 24 123 24 156 0 22 5 39 10 39 6 0 10 -4 10
-8 0 -14 81 -135 86 -129 3 3 -4 38 -16 78 -35 116 -58 210 -65 264 -3 28 -9
66 -13 85 -14 62 -1 144 33 215 86 182 119 321 112 467 -2 57 -7 112 -10 123
-3 12 -8 48 -12 80 -4 33 -13 76 -20 95 -7 20 -15 58 -19 85 -4 28 -9 66 -12
85 -3 19 -8 92 -11 161 -10 223 33 489 134 842 8 26 2 21 -38 -31z m-262
-2054 c-3 -8 -6 -5 -6 6 -1 11 2 17 5 13 3 -3 4 -12 1 -19z m43 -229 c0 -20
-15 -26 -25 -9 -9 15 3 43 15 35 5 -3 10 -15 10 -26z m-40 -34 c15 -18 6 -45
-15 -45 -10 0 -15 10 -15 30 0 33 11 38 30 15z"/>
<path d="M12437 7588 c-57 -76 -97 -199 -97 -296 0 -90 37 -188 84 -229 14
-13 26 -27 26 -33 0 -6 8 -29 19 -53 10 -23 29 -70 42 -104 13 -35 27 -59 32
-54 8 8 -28 138 -44 155 -5 6 -9 16 -9 24 0 26 -44 103 -56 98 -37 -14 -25
304 18 447 11 37 18 70 15 73 -3 3 -16 -10 -30 -28z"/>
<path d="M3687 7569 c-103 -68 -275 -290 -352 -454 -21 -44 -41 -88 -46 -97
-5 -10 -9 -26 -9 -36 0 -11 -6 -32 -14 -48 -29 -60 -59 -298 -59 -479 0 -96
22 -239 46 -295 13 -32 14 -20 11 144 -5 196 9 324 52 495 14 53 27 105 29
116 26 140 202 460 328 600 50 55 72 85 64 85 -2 0 -25 -14 -50 -31z"/>
<path d="M12562 7530 c-25 -40 -6 -145 42 -235 9 -16 16 -34 16 -38 0 -13 -42
3 -77 29 -34 26 -54 24 -90 -9 -32 -28 -29 -71 7 -143 37 -73 167 -208 259
-269 36 -24 80 -56 96 -70 101 -91 349 -200 500 -220 28 -4 86 -22 130 -41
152 -63 237 -78 445 -77 126 0 211 5 265 15 62 12 102 14 173 7 110 -10 125
-17 86 -37 -63 -33 -222 -173 -458 -403 l-118 -115 -57 27 c-119 59 -156 69
-251 71 -57 1 -152 -13 -193 -30 -21 -8 -60 -15 -88 -16 -27 0 -50 -5 -51 -11
-4 -15 71 -23 212 -24 69 -1 180 -8 245 -16 66 -8 138 -15 160 -15 72 0 190
82 381 266 41 38 74 68 74 66 0 -8 -133 -166 -188 -224 -30 -31 -75 -84 -101
-118 l-46 -61 -22 26 c-12 14 -27 25 -33 25 -17 0 -2 -82 36 -200 5 -12 8 -11
21 5 11 15 13 35 9 75 -5 54 -4 56 29 77 60 40 194 163 270 251 79 89 143 180
210 297 l41 70 93 7 c107 7 126 0 157 -57 34 -64 45 -39 18 41 -9 28 -12 49
-6 53 5 3 12 27 16 53 6 40 4 50 -15 69 -13 13 -24 17 -28 11 -10 -16 -83 2
-137 33 -33 20 -52 25 -62 18 -15 -9 -134 20 -177 44 -11 6 -40 14 -65 18 -25
3 -72 15 -104 26 -54 18 -60 19 -68 4 -6 -9 -14 -12 -21 -8 -7 5 -19 8 -27 8
-23 1 -163 26 -180 32 -8 3 -24 8 -35 10 -33 6 -217 53 -269 68 -26 8 -53 15
-60 15 -6 1 -29 9 -51 20 -22 11 -45 19 -51 20 -6 0 -37 14 -69 30 -67 34 -75
36 -75 16 0 -16 79 -86 131 -117 68 -40 155 -77 209 -89 30 -7 62 -16 70 -20
9 -4 29 -10 46 -14 21 -5 33 -16 41 -36 16 -42 130 -113 288 -180 11 -5 34
-13 50 -19 64 -22 -192 0 -385 33 -181 31 -214 42 -398 133 -88 44 -129 60
-137 52 -10 -10 36 -60 95 -102 l25 -18 -25 7 c-37 9 -184 84 -273 138 -75 46
-77 49 -61 67 16 18 15 21 -32 71 -27 29 -59 63 -71 74 -31 29 -31 52 0 30
100 -72 385 -216 483 -245 93 -28 160 -28 174 -1 8 15 6 24 -10 40 -11 11 -25
20 -31 20 -11 0 -139 63 -199 97 -19 11 -88 51 -152 89 -64 38 -165 96 -224
129 -59 33 -119 68 -133 77 -14 10 -32 21 -40 24 -18 9 -120 228 -127 276 -7
43 -14 47 -32 18z m1431 -817 c-7 -2 -19 -2 -25 0 -7 3 -2 5 12 5 14 0 19 -2
13 -5z"/>
<path d="M13370 7427 c0 -29 94 -97 190 -137 30 -13 66 -33 80 -46 14 -12 45
-30 70 -39 150 -53 162 -56 175 -45 9 8 27 5 66 -9 111 -40 209 -62 266 -59
51 3 58 6 61 26 2 12 -3 24 -10 26 -7 2 -40 11 -73 21 -33 9 -103 32 -155 50
-115 41 -274 97 -390 137 -47 16 -120 42 -162 59 -84 32 -118 36 -118 16z"/>
<path d="M13835 7400 c7 -12 51 -31 135 -60 36 -12 108 -43 160 -69 52 -26
118 -55 145 -65 28 -10 65 -27 84 -38 41 -23 49 -17 27 17 -11 17 -63 47 -149
88 -165 79 -171 81 -290 112 -108 28 -121 29 -112 15z"/>
<path d="M3831 7208 c-12 -29 -26 -62 -31 -73 -32 -73 -50 -119 -50 -129 0
-11 30 48 55 109 7 17 23 54 36 82 12 29 20 55 17 58 -3 3 -15 -18 -27 -47z"/>
<path d="M4027 7210 c-4 -8 -11 -35 -17 -60 -7 -25 -41 -109 -76 -187 -35 -78
-64 -145 -64 -148 0 -4 -14 -27 -32 -51 -17 -24 -29 -46 -27 -49 11 -10 69 37
98 79 85 123 160 352 134 408 -8 18 -12 20 -16 8z"/>
<path d="M4372 7148 c-50 -127 -102 -271 -101 -281 1 -17 49 84 49 104 0 8 4
19 8 25 14 14 64 162 60 174 -2 6 -9 -4 -16 -22z"/>
<path d="M9065 7118 c-10 -29 -9 -51 1 -55 10 -3 34 37 34 57 0 15 -30 12 -35
-2z"/>
<path d="M15013 6949 c-24 -10 -43 -25 -43 -33 0 -8 -7 -19 -15 -24 -38 -21
-105 -142 -79 -142 3 0 33 23 67 50 34 28 67 50 74 50 7 0 13 5 13 11 0 5 4 8
9 4 5 -3 12 -1 16 5 10 16 64 12 96 -7 32 -19 69 -85 69 -122 0 -50 -58 -240
-106 -349 -35 -79 -29 -84 26 -23 42 46 145 226 145 256 0 5 4 16 8 22 4 7 10
35 14 61 12 102 -58 219 -144 240 -76 19 -108 20 -150 1z"/>
<path d="M6310 6873 c-14 -10 -45 -27 -70 -39 -25 -12 -83 -46 -130 -77 -46
-32 -88 -57 -92 -57 -4 0 -8 -4 -8 -10 0 -15 24 -12 90 10 58 19 154 71 175
94 6 6 19 16 30 22 28 15 62 74 43 74 -7 0 -25 -8 -38 -17z"/>
<path d="M12580 6820 c-16 -10 38 -40 72 -40 19 0 20 2 8 13 -24 22 -66 36
-80 27z"/>
<path d="M12696 6821 c-12 -19 -36 -178 -36 -241 0 -46 -6 -76 -20 -103 -32
-59 -58 -137 -65 -193 -6 -50 -6 -52 27 -70 18 -11 76 -32 128 -47 166 -48
212 -64 328 -112 62 -26 116 -44 120 -40 10 11 -88 96 -149 129 -94 50 -153
65 -299 72 -124 7 -144 17 -118 62 18 30 54 124 60 157 3 14 16 -3 45 -61 41
-79 67 -113 80 -101 3 4 -7 68 -22 144 -32 160 -45 252 -48 342 -2 60 -16 87
-31 62z"/>
<path d="M5566 6757 c-18 -27 -13 -99 9 -133 20 -30 70 -33 85 -5 24 47 4 145
-33 155 -36 10 -46 7 -61 -17z"/>
<path d="M5045 6762 c-33 -6 -98 -29 -132 -47 -33 -16 -103 -88 -103 -105 0
-14 26 -12 58 4 37 19 258 93 305 101 20 4 40 11 43 16 12 21 -111 43 -171 31z"/>
<path d="M14965 6745 c-29 -28 -35 -81 -9 -71 33 13 59 16 70 9 19 -14 44 -98
44 -148 0 -44 2 -48 15 -34 16 16 36 104 30 135 -2 10 -4 32 -4 47 -1 39 -53
87 -93 87 -17 0 -39 -10 -53 -25z"/>
<path d="M5475 6703 c-32 -78 -13 -188 56 -329 37 -76 42 -107 19 -124 -4 -3
-24 -38 -44 -79 -50 -98 -37 -110 41 -40 56 51 103 124 103 161 0 9 -11 38
-24 65 -60 120 -85 184 -105 263 -23 91 -34 112 -46 83z"/>
<path d="M4972 6529 c-18 -29 -18 -36 -6 -100 7 -38 16 -74 20 -80 9 -16 54
-30 74 -24 41 13 55 143 20 188 -11 14 -20 30 -20 36 0 6 -15 11 -34 11 -27 0
-38 -6 -54 -31z"/>
<path d="M15310 6460 c0 -8 23 -55 51 -105 28 -49 67 -119 87 -155 19 -36 46
-82 59 -102 12 -21 23 -41 23 -46 0 -5 9 -17 20 -27 11 -10 20 -22 20 -28 0
-5 29 -57 64 -116 35 -58 71 -122 81 -141 10 -19 31 -62 48 -95 17 -33 31 -62
32 -65 3 -9 22 -54 53 -120 40 -89 132 -323 147 -377 10 -35 25 -27 25 11 0
28 3 33 18 29 10 -2 29 5 42 15 24 20 24 21 8 55 -9 19 -14 44 -11 55 6 25
-13 62 -32 62 -18 0 -19 14 -3 39 17 28 3 51 -32 51 -34 0 -39 14 -10 30 24
13 26 52 5 70 -12 10 -19 10 -27 2 -16 -16 -38 -15 -38 2 0 8 9 18 20 21 12 4
20 15 20 29 0 12 -9 32 -20 44 -12 13 -20 35 -20 56 0 26 -6 38 -21 47 -16 8
-20 17 -16 37 8 38 -14 65 -47 56 -14 -3 -26 -2 -26 3 0 5 -14 17 -31 27 -29
17 -69 70 -69 90 0 6 13 -2 28 -17 32 -31 55 -35 50 -9 -1 9 1 23 6 30 4 7 5
25 1 39 -5 23 -9 24 -40 19 -39 -8 -47 6 -15 26 25 16 25 30 1 52 -14 12 -28
16 -52 11 -27 -4 -40 0 -63 18 l-30 24 21 18 c12 10 19 24 15 33 -3 8 3 21 12
28 24 17 13 36 -59 102 -78 73 -100 82 -128 54 l-22 -22 -72 77 c-40 43 -72
71 -73 63z m280 -296 c0 -14 -3 -14 -15 -4 -8 7 -15 14 -15 16 0 2 7 4 15 4 8
0 15 -7 15 -16z m80 -124 c0 -5 -4 -10 -10 -10 -5 0 -10 5 -10 10 0 6 5 10 10
10 6 0 10 -4 10 -10z m55 -80 c-3 -5 -11 -10 -16 -10 -6 0 -7 5 -4 10 3 6 11
10 16 10 6 0 7 -4 4 -10z m100 -179 c3 -5 1 -12 -5 -16 -5 -3 -10 1 -10 9 0
18 6 21 15 7z m58 -96 c-7 -19 -33 -20 -33 -1 0 15 20 26 32 19 4 -2 5 -10 1
-18z m47 -90 c0 -7 -7 -15 -15 -19 -15 -5 -22 24 -9 37 9 9 24 -2 24 -18z
m130 -395 c0 -5 -9 -14 -20 -20 -17 -9 -20 -8 -20 10 0 13 7 20 20 20 11 0 20
-4 20 -10z"/>
<path d="M6803 6415 c-16 -39 -73 -283 -84 -356 -5 -32 -13 -75 -18 -98 -9
-42 -2 -52 18 -27 18 22 68 175 86 263 9 46 15 113 13 163 -3 78 -4 82 -15 55z"/>
<path d="M15644 6382 c12 -20 236 -120 351 -157 22 -7 84 -27 137 -44 53 -17
105 -31 115 -31 11 0 24 -5 29 -10 6 -6 24 -13 40 -16 16 -3 42 -11 59 -19 32
-14 101 -36 175 -55 25 -7 47 -15 50 -19 6 -7 108 -50 220 -91 41 -15 105 -41
143 -59 37 -17 72 -31 77 -31 34 0 -17 42 -186 152 -164 107 -204 124 -599
241 -82 25 -180 52 -217 61 -390 93 -405 96 -394 78z"/>
<path d="M8664 6301 c-43 -20 -84 -73 -84 -109 0 -18 6 -17 61 20 63 42 95 80
84 98 -8 13 -13 13 -61 -9z"/>
<path d="M12950 6255 c27 -29 119 -77 131 -69 29 17 -82 94 -135 94 -18 0 -18
-2 4 -25z"/>
<path d="M15130 6270 c-11 -7 -15 -25 -14 -62 1 -67 42 -159 90 -204 33 -32
35 -35 24 -71 -5 -21 -15 -119 -20 -218 -17 -296 -18 -300 -180 -480 -84 -95
-230 -357 -291 -525 -17 -47 -38 -103 -46 -124 -27 -75 -9 -73 43 4 56 84 95
152 164 285 65 126 111 209 119 215 18 14 191 241 215 281 43 76 57 165 52
351 -3 152 -17 256 -35 268 -10 7 -41 86 -41 108 -1 9 -15 54 -33 99 -26 67
-35 81 -47 73z"/>
<path d="M8635 6182 c-57 -32 -83 -57 -90 -92 -3 -14 -12 -45 -20 -70 -7 -25
-17 -73 -20 -107 -6 -54 -4 -64 14 -82 12 -12 34 -21 50 -21 27 0 30 4 36 43
4 23 15 60 25 82 10 22 26 67 36 100 9 33 33 79 51 102 33 41 36 70 7 59 -7
-3 -16 -1 -19 4 -9 14 -14 13 -70 -18z"/>
<path d="M3665 6151 c-29 -57 -55 -178 -64 -304 -5 -71 -8 -134 -6 -140 2 -7
6 -66 9 -132 3 -66 11 -138 18 -160 6 -22 11 -44 9 -49 -1 -4 5 -29 13 -55 7
-25 21 -72 31 -103 9 -32 21 -60 26 -64 5 -3 9 -14 9 -26 0 -11 6 -32 14 -46
8 -15 35 -70 61 -122 26 -52 56 -104 66 -116 10 -11 19 -26 19 -32 0 -14 48
-94 62 -103 5 -3 10 -14 13 -25 2 -10 15 -43 29 -71 14 -29 26 -55 26 -58 0
-3 23 -52 50 -109 28 -57 50 -110 50 -118 0 -8 9 -31 20 -53 38 -75 86 -262
95 -373 9 -109 27 -95 33 25 3 74 -5 168 -23 258 -11 59 -37 150 -44 159 -5 6
-11 22 -14 36 -6 29 -50 148 -65 176 -6 10 -23 47 -38 82 -16 34 -32 62 -36
62 -4 0 -8 6 -8 14 0 12 -52 117 -70 141 -4 6 -21 35 -37 65 -17 30 -44 81
-62 112 -56 102 -132 309 -146 398 -2 14 -9 52 -14 85 -6 33 -13 92 -16 130
-3 39 -8 95 -12 125 -9 80 -4 222 10 328 7 50 12 92 10 92 -1 0 -9 -13 -18
-29z"/>
<path d="M13471 6165 c-72 -20 -136 -56 -118 -66 14 -8 224 12 336 32 61 11
63 12 39 25 -40 21 -194 26 -257 9z"/>
<path d="M15024 6137 c-12 -17 -33 -52 -47 -77 -130 -238 -250 -412 -372 -544
-14 -15 -25 -31 -25 -37 0 -5 -5 -9 -11 -9 -14 0 -59 -47 -59 -61 0 -5 -6 -9
-14 -9 -8 0 -36 -18 -63 -41 -26 -22 -61 -52 -77 -65 -15 -13 -32 -24 -36 -24
-5 0 -15 -6 -22 -13 -34 -34 -161 -87 -266 -111 -144 -33 -175 -33 -246 4 -62
31 -186 112 -186 120 0 3 34 11 75 17 80 13 155 41 220 82 29 19 35 26 23 29
-25 5 -204 -34 -296 -64 l-77 -25 -47 22 c-56 26 -68 21 -43 -18 57 -86 214
-213 315 -253 58 -24 286 -14 381 16 96 30 176 73 256 135 35 27 65 49 68 49
32 0 375 361 375 395 0 3 15 25 34 50 40 52 87 144 117 230 22 64 59 201 59
223 0 21 -14 13 -36 -21z"/>
<path d="M12670 6148 c0 -32 117 -167 144 -168 5 0 17 -6 25 -14 9 -8 53 -33
99 -56 51 -27 82 -49 82 -59 0 -33 52 -148 88 -197 l39 -50 0 -96 c-1 -101 7
-123 47 -138 18 -6 20 -17 21 -126 2 -117 4 -132 25 -230 14 -63 93 -184 120
-184 25 0 25 2 0 73 -11 31 -20 63 -20 71 0 14 -23 90 -37 126 -4 8 -8 24 -9
35 -2 11 -12 63 -22 115 -20 101 -19 120 3 120 20 0 85 32 85 42 0 9 -31 17
-85 20 l-40 3 -6 165 c-6 159 -20 253 -42 295 -10 18 -11 17 -19 -15 -4 -19
-8 -74 -9 -122 0 -49 -4 -88 -7 -88 -4 0 -15 20 -26 45 -10 25 -29 61 -42 81
-31 45 -30 54 6 54 33 0 73 35 67 60 -1 8 -11 14 -20 14 -12 -1 -26 16 -43 53
-15 30 -32 57 -39 59 -23 9 -55 -15 -55 -41 0 -14 -1 -25 -2 -25 -14 0 -173
89 -223 124 -88 61 -105 70 -105 54z"/>
<path d="M2825 6006 c-125 -30 -425 -204 -551 -318 -73 -67 -214 -228 -214
-245 0 -7 -4 -13 -10 -13 -7 0 -91 -117 -110 -155 -3 -5 -35 -55 -71 -110 -36
-55 -83 -129 -104 -165 -21 -36 -68 -110 -104 -165 -36 -55 -68 -104 -71 -110
-3 -6 -11 -18 -18 -26 -34 -39 -58 -69 -100 -129 -26 -36 -49 -67 -53 -70 -20
-14 -128 -185 -119 -188 27 -9 269 220 339 322 17 25 31 47 31 50 0 3 10 16
23 30 26 28 177 272 177 286 0 4 4 10 8 12 7 3 28 35 105 163 7 11 24 36 40
56 15 20 27 40 27 43 0 3 35 52 77 108 128 170 292 322 454 423 35 21 66 39
69 40 13 1 89 41 125 65 22 15 48 29 57 33 9 3 35 18 59 32 32 21 39 29 28 36
-18 11 -32 10 -94 -5z"/>
<path d="M5505 5981 c-44 -16 -100 -37 -125 -48 -25 -11 -87 -26 -138 -33 -51
-7 -95 -17 -98 -21 -2 -4 7 -16 21 -25 23 -15 100 -21 180 -15 74 6 245 110
253 154 4 22 1 22 -93 -12z"/>
<path d="M7471 5908 c5 -18 22 -48 37 -68 42 -51 153 -140 185 -147 15 -3 27
-9 27 -14 0 -5 26 -16 58 -25 31 -9 63 -21 70 -27 16 -13 260 -4 287 10 11 6
44 21 72 34 29 12 60 31 69 40 15 17 15 19 0 25 -8 3 -30 1 -48 -6 -48 -18
-254 -24 -308 -10 -25 6 -69 17 -97 23 -29 5 -53 14 -53 19 0 4 -6 8 -12 8
-27 0 -177 84 -226 126 -61 53 -74 56 -61 12z"/>
<path d="M8105 5911 c-3 -6 11 -13 32 -17 65 -11 68 -12 86 -19 9 -4 17 -3 17
2 0 9 -94 43 -118 43 -6 0 -13 -4 -17 -9z"/>
<path d="M12770 5910 c-14 -4 -59 -18 -100 -30 -283 -81 -313 -110 -482 -463
-20 -42 -48 -127 -63 -188 -12 -55 -57 -174 -70 -188 -5 -5 -54 52 -55 63 0
12 -67 93 -110 134 -55 52 -60 56 -157 125 -91 64 -390 223 -400 213 -8 -8 65
-87 106 -116 20 -13 45 -32 56 -43 11 -10 36 -28 55 -40 68 -41 73 -62 14 -51
-29 5 -35 2 -61 -33 -39 -54 -157 -312 -182 -398 -22 -75 -40 -187 -41 -247 0
-42 19 -50 54 -23 23 18 36 11 36 -19 0 -36 -25 -52 -61 -39 -16 6 -31 8 -33
4 -3 -3 -2 -36 0 -71 9 -118 -8 -360 -29 -427 -9 -26 -26 -91 -37 -143 -20
-87 -40 -157 -76 -265 -7 -22 -16 -57 -19 -79 -6 -38 -6 -38 21 -32 l27 7 -6
-45 c-4 -26 -5 -46 -2 -46 8 0 94 118 137 190 72 119 125 240 153 345 24 93
25 111 25 359 -1 290 8 468 24 483 3 3 6 18 6 33 0 32 53 207 80 268 11 23 20
51 20 60 0 20 37 102 46 102 5 0 7 -1 64 -50 19 -16 38 -30 41 -30 9 0 102
-93 140 -141 91 -113 142 -255 140 -389 -2 -99 -4 -113 -25 -244 -16 -99 -19
-114 -49 -211 -29 -94 -56 -242 -62 -330 -2 -48 -11 -119 -19 -159 -16 -78
-35 -247 -33 -286 2 -27 -3 -29 -358 -139 -160 -50 -180 -51 -188 -12 -4 16
-21 45 -40 63 -33 34 -108 65 -127 53 -6 -4 19 -39 55 -79 36 -40 65 -78 65
-84 0 -25 38 -29 155 -16 146 15 261 39 312 64 21 10 41 15 45 12 3 -4 9 -86
12 -182 3 -96 8 -201 12 -232 7 -64 3 -68 -45 -43 -16 8 -85 22 -155 32 -106
14 -126 20 -126 34 0 24 -10 49 -20 49 -12 0 -26 -50 -45 -155 -19 -104 -34
-126 -114 -161 -30 -14 -61 -30 -69 -36 -8 -7 -20 -13 -28 -14 -8 -1 -33 -12
-56 -24 -22 -11 -47 -19 -54 -16 -28 11 -13 32 39 56 62 29 151 111 203 186
37 53 39 79 6 57 -92 -62 -252 -157 -283 -168 -50 -18 -105 -21 -196 -11 -63
7 -73 6 -73 -7 0 -16 44 -53 88 -77 13 -6 58 -12 100 -13 l76 -2 44 -110 c54
-137 130 -316 194 -460 83 -187 82 -184 107 -263 11 -34 18 -68 15 -75 -8 -22
-177 -56 -394 -78 -119 -12 -666 -31 -935 -32 -178 -1 -428 8 -515 19 -25 4
-61 8 -80 10 -77 10 -880 15 -952 7 -43 -5 -78 -7 -78 -3 0 3 24 16 54 29 50
21 107 69 192 162 50 53 167 300 150 316 -7 7 -59 -77 -87 -142 -26 -58 -39
-69 -39 -32 0 39 -36 101 -84 145 -70 65 -179 110 -326 136 -110 19 -368 15
-460 -8 -36 -9 -74 -18 -85 -19 -45 -8 -134 -38 -140 -47 -3 -6 -15 -10 -26
-10 -27 0 -119 -30 -144 -47 -11 -7 -26 -13 -33 -13 -17 0 -69 -22 -135 -55
-26 -14 -55 -25 -65 -25 -10 0 -22 -4 -28 -8 -5 -5 -25 -15 -44 -22 -56 -21
-104 -43 -118 -54 -8 -5 -23 -11 -34 -13 -12 -2 -48 -16 -82 -32 -33 -16 -72
-32 -86 -36 -14 -3 -47 -15 -75 -25 -86 -31 -252 -81 -302 -90 -26 -4 -97 -20
-158 -35 -60 -15 -129 -29 -152 -32 -24 -3 -47 -11 -53 -18 -19 -23 102 -26
342 -11 43 3 88 11 100 17 13 7 24 11 26 10 5 -4 78 12 97 23 11 6 27 11 35
12 27 4 182 54 194 63 6 4 29 14 51 21 22 7 63 26 92 41 29 16 60 29 70 29 11
0 23 4 29 9 5 5 56 28 114 51 58 23 125 51 150 62 72 33 83 38 115 48 17 5 62
21 100 35 39 15 95 33 125 42 30 8 60 18 65 21 6 4 19 7 30 8 18 0 90 12 201
33 57 11 284 -13 374 -39 41 -12 82 -23 91 -25 37 -7 110 -71 130 -112 37 -76
5 -144 -106 -228 -70 -52 -203 -122 -249 -130 l-36 -7 11 33 c28 88 32 99 93
233 24 51 36 93 36 122 l0 43 57 -20 c32 -11 62 -24 67 -29 13 -13 26 -13 26
0 0 6 -24 25 -52 44 -188 119 -490 125 -794 16 -58 -21 -117 -48 -364 -167
-210 -102 -385 -176 -500 -213 -213 -68 -505 -124 -520 -100 -6 9 -26 9 -86 0
-102 -14 -126 -26 -122 -59 l3 -26 130 2 c72 1 157 7 190 13 33 6 97 17 143
25 46 7 89 18 95 23 7 5 33 13 60 16 26 4 47 11 47 15 0 5 18 11 40 15 23 3
49 11 58 16 9 5 46 21 82 35 36 15 79 33 97 41 17 8 33 14 36 14 6 0 134 60
387 182 274 133 372 164 578 188 83 9 248 -2 279 -18 8 -5 6 -18 -7 -47 -11
-22 -19 -46 -20 -52 0 -7 -4 -13 -8 -13 -5 0 -22 -28 -38 -63 -16 -34 -32 -64
-35 -67 -7 -6 -43 -118 -58 -182 -7 -31 -8 -55 -1 -73 10 -25 10 -25 46 -10
48 20 101 20 204 0 62 -11 173 -17 410 -21 179 -3 332 -8 340 -11 27 -10 75
-9 82 1 4 7 15 6 30 -1 13 -7 88 -15 168 -18 148 -6 190 -9 340 -22 108 -10
622 -10 805 -1 437 24 623 44 765 83 30 8 65 15 76 15 18 0 94 69 94 84 0 24
-36 151 -55 191 -33 72 -66 150 -64 150 1 0 -22 45 -51 100 -107 202 -220 424
-220 433 0 5 17 9 39 9 81 0 208 51 268 107 38 36 50 68 58 156 4 35 8 66 10
68 2 3 36 -5 75 -17 54 -17 176 -38 236 -41 1 0 5 -16 8 -35 14 -71 37 -27 56
106 12 86 11 125 -7 239 -11 67 -12 95 -4 98 17 6 13 32 -5 32 -8 0 -24 20
-35 45 l-20 46 45 44 c25 24 46 49 46 55 0 6 13 39 29 73 45 98 74 217 86 367
9 95 18 151 35 210 10 36 22 83 26 105 3 22 10 45 14 50 10 13 27 103 34 176
2 14 6 30 9 36 10 16 24 171 22 241 -2 34 -8 104 -15 155 -13 91 -12 94 15
172 15 44 41 100 59 125 54 75 131 220 166 310 58 151 76 184 116 218 68 58
165 114 282 162 63 25 114 50 115 56 3 12 -61 15 -93 4z m-676 -892 c-13 -46
-21 -52 -28 -23 -5 19 -3 31 6 36 22 15 30 10 22 -13z m-724 -642 c0 -31 -19
-46 -47 -35 -30 11 -29 25 5 43 37 21 42 20 42 -8z m-70 -556 c0 -5 -5 -10
-11 -10 -5 0 -7 5 -4 10 3 6 8 10 11 10 2 0 4 -4 4 -10z"/>
<path d="M13250 5914 c0 -13 90 -140 124 -176 68 -72 104 -85 251 -95 101 -6
204 12 220 37 9 15 -37 29 -124 36 l-79 7 -7 46 c-10 71 -25 110 -47 122 -41
22 -81 -56 -58 -116 6 -16 7 -32 3 -36 -11 -11 -88 25 -116 54 -12 13 -50 47
-85 75 -58 48 -82 61 -82 46z"/>
<path d="M17220 5763 c157 -141 321 -316 399 -425 19 -27 38 -48 41 -48 4 0
19 -17 33 -37 22 -33 227 -247 268 -279 8 -7 25 -25 39 -40 14 -16 43 -45 65
-64 22 -20 58 -58 80 -85 22 -27 51 -60 64 -74 46 -51 169 -207 215 -276 47
-69 48 -70 41 -31 -9 51 -71 177 -139 279 -81 123 -145 198 -261 308 -132 124
-270 271 -384 409 -165 199 -318 332 -472 411 -68 34 -65 20 11 -48z"/>
<path d="M17090 5784 c-19 -8 -37 -18 -40 -22 -3 -4 -23 -16 -45 -27 -52 -26
-125 -86 -125 -102 0 -8 -7 -16 -15 -19 -8 -4 -15 -10 -15 -14 0 -4 -13 -22
-30 -40 -16 -18 -30 -38 -30 -46 0 -8 -4 -14 -10 -14 -5 0 -10 -7 -10 -15 0
-8 -4 -15 -9 -15 -5 0 -14 -15 -21 -32 -7 -18 -19 -47 -26 -65 -8 -17 -14 -38
-14 -46 0 -9 -4 -18 -9 -22 -5 -3 -9 -19 -9 -35 1 -17 -14 -55 -35 -90 -42
-70 -47 -95 -18 -87 17 4 19 0 14 -32 -3 -20 -10 -54 -15 -76 -5 -22 -12 -67
-14 -100 -3 -33 -14 -78 -25 -99 -24 -46 -24 -138 -2 -287 37 -242 128 -467
295 -727 10 -15 21 -33 24 -39 11 -22 27 -14 21 10 -3 12 -28 85 -55 162 -27
77 -52 147 -55 155 -83 241 -111 391 -111 585 1 128 3 152 29 285 9 47 20 112
25 145 5 33 13 77 19 98 6 24 5 39 -1 43 -6 4 -6 9 -1 13 5 3 17 31 27 61 9
30 26 75 37 98 41 90 164 255 252 340 75 73 75 90 -3 56z"/>
<path d="M6075 5699 c14 -44 75 -159 85 -159 11 0 3 22 -40 107 -33 66 -58 94
-45 52z"/>
<path d="M10660 5676 c0 -2 -9 -48 -20 -101 -11 -53 -20 -113 -20 -132 0 -34
-27 -93 -42 -93 -4 0 -8 -7 -8 -15 0 -8 -4 -15 -9 -15 -9 0 -77 -86 -193 -242
-60 -82 -113 -180 -137 -254 -52 -159 -85 -330 -62 -323 7 3 34 56 61 119 108
255 174 370 340 585 105 136 114 158 118 295 3 122 -3 180 -18 180 -6 0 -10
-2 -10 -4z"/>
<path d="M12508 5614 c-4 -5 -9 -26 -13 -47 -4 -21 -13 -41 -20 -44 -7 -2 -16
-15 -19 -28 -24 -95 -25 -407 -3 -550 9 -55 19 -118 22 -140 4 -22 11 -44 16
-50 5 -5 9 -20 9 -35 0 -14 12 -59 26 -100 14 -41 27 -82 29 -90 6 -27 46
-125 55 -134 20 -20 22 29 6 129 -9 57 -16 120 -16 141 0 37 0 37 20 19 33
-30 35 -9 8 73 -31 92 -55 189 -62 257 l-6 50 20 -40 c11 -22 20 -48 20 -57 0
-10 4 -18 9 -18 5 0 12 -8 14 -17 7 -29 -3 27 -20 107 -8 41 -21 82 -28 90 -7
8 -11 27 -8 41 3 15 -2 40 -11 57 -9 17 -16 49 -16 71 0 22 -5 43 -11 47 -9 5
-10 41 -6 123 5 107 -1 168 -15 145z"/>
<path d="M12750 5555 c0 -33 -4 -45 -15 -45 -8 0 -15 -4 -15 -10 0 -5 7 -10
15 -10 11 0 12 -5 6 -23 -5 -13 -12 -50 -16 -82 -6 -47 -14 -65 -36 -86 -29
-27 -31 -66 -3 -55 19 7 18 -28 -2 -44 -18 -16 -16 -86 4 -82 17 3 15 -13 -4
-29 -12 -10 -14 -24 -9 -70 4 -33 3 -65 -3 -75 -8 -14 -4 -30 13 -65 13 -25
34 -97 46 -160 11 -63 27 -129 35 -147 8 -18 14 -39 14 -48 0 -8 9 -32 20 -54
11 -22 20 -47 20 -57 0 -10 9 -29 19 -42 10 -14 17 -31 14 -38 -3 -8 6 -26 19
-41 32 -34 88 -128 88 -146 0 -7 7 -20 17 -27 9 -8 24 -27 34 -43 23 -38 158
-186 170 -186 13 0 11 27 -6 60 -13 25 -13 29 1 34 29 11 34 6 34 -33 0 -46
10 -56 36 -36 10 8 27 15 38 15 17 0 17 1 2 23 -9 12 -34 59 -55 103 -44 91
-58 108 -54 61 4 -39 -26 -83 -51 -74 -23 9 -20 25 7 29 32 4 26 20 -21 46
-45 25 -77 63 -87 105 -6 21 -4 27 9 27 25 0 25 43 0 68 -13 13 -17 12 -34 -3
-19 -17 -20 -17 -20 3 0 11 5 24 10 27 6 3 10 15 10 25 0 23 -32 58 -38 41 -6
-19 -22 -12 -22 9 0 11 5 20 11 20 13 0 4 47 -13 68 -8 9 -14 9 -24 1 -11 -9
-14 -8 -14 4 0 9 5 19 10 22 6 3 10 20 10 36 0 25 -5 30 -30 36 -33 6 -37 15
-15 33 22 18 19 51 -6 57 -18 5 -20 11 -14 40 8 45 -2 73 -26 73 -20 0 -26 15
-10 24 5 3 12 18 15 32 5 20 1 33 -15 50 -14 15 -20 30 -16 45 3 12 0 45 -8
74 -7 28 -16 128 -19 221 -5 147 -4 164 8 130 13 -41 30 -56 38 -34 6 16 -24
218 -35 236 -5 6 -15 12 -23 12 -10 0 -14 -12 -14 -45z"/>
<path d="M8673 5558 c-17 -20 -20 -50 -6 -55 17 -6 40 44 26 58 -7 7 -13 6
-20 -3z"/>
<path d="M11210 5510 c0 -5 5 -10 11 -10 5 0 7 5 4 10 -3 6 -8 10 -11 10 -2 0
-4 -4 -4 -10z"/>
<path d="M5461 5460 c0 -8 4 -34 9 -57 14 -62 14 -300 0 -355 -14 -54 -10
-111 15 -223 25 -113 16 -463 -14 -574 -25 -89 -25 -95 -7 -88 18 7 26 -13 26
-64 0 -44 26 -56 35 -16 37 160 48 587 18 742 -26 138 -27 159 -3 231 29 85
24 206 -11 301 -23 64 -68 131 -68 103z"/>
<path d="M11277 5430 c-9 -16 -19 -44 -22 -62 -18 -81 -134 -270 -215 -348
-52 -52 -156 -118 -167 -107 -2 3 23 27 56 54 61 49 75 67 44 56 -51 -17 -243
-117 -273 -142 -34 -28 -34 -30 -24 -69 l11 -40 -58 -41 c-32 -23 -61 -41 -64
-41 -8 0 -71 -49 -149 -115 -93 -78 -211 -250 -232 -337 -11 -47 19 -33 64 30
74 101 106 132 139 132 22 0 36 7 47 25 9 14 25 25 36 25 10 0 27 9 37 19 10
11 30 22 46 26 34 9 34 18 2 39 -14 9 -25 20 -25 24 1 8 67 52 79 52 4 0 20
-13 36 -30 33 -34 55 -39 55 -11 0 24 15 34 53 36 15 1 50 14 77 30 40 24 48
33 44 50 -4 17 1 25 26 35 40 17 52 40 44 90 -6 38 -5 40 19 40 14 0 29 5 32
10 3 6 13 10 21 10 21 0 102 38 137 64 35 25 59 71 82 151 9 33 24 83 32 110
8 28 21 81 29 118 8 38 16 73 20 78 7 13 -5 69 -16 69 -5 0 -15 -13 -23 -30z
m-439 -682 c2 -9 -6 -18 -20 -21 -13 -3 -34 -9 -47 -13 -20 -6 -22 -5 -14 10
11 20 53 45 68 42 6 -2 11 -10 13 -18z"/>
<path d="M4919 5409 c-20 -35 -17 -191 4 -261 10 -32 28 -70 42 -85 l24 -28 0
40 c0 22 -6 92 -14 155 -24 196 -32 222 -56 179z"/>
<path d="M7387 5403 c-24 -23 9 -31 39 -8 18 14 18 14 -7 15 -14 0 -29 -3 -32
-7z"/>
<path d="M9564 5373 c7 -21 30 -70 50 -109 20 -39 36 -74 36 -77 0 -4 18 -44
39 -90 22 -46 45 -103 51 -127 20 -74 74 -142 170 -212 19 -14 72 -63 117
-108 46 -46 86 -81 89 -77 12 12 -26 93 -56 123 -16 16 -30 34 -30 39 0 10
-34 42 -147 141 -42 37 -57 59 -79 117 -29 78 -129 255 -200 355 -25 34 -47
62 -49 62 -2 0 2 -17 9 -37z"/>
<path d="M7712 5210 c-18 -16 -39 -30 -47 -30 -8 0 -15 -7 -15 -15 0 -25 96
-20 137 8 39 26 40 31 11 51 -32 23 -51 20 -86 -14z"/>
<path d="M2057 5170 c-43 -37 -96 -138 -135 -255 -60 -181 -82 -346 -63 -479
18 -127 26 -120 47 35 33 257 107 556 165 670 16 33 27 59 24 59 -2 0 -20 -13
-38 -30z"/>
<path d="M17096 5138 c-30 -62 -69 -199 -87 -308 -18 -115 -6 -317 26 -419 14
-44 37 -93 50 -108 l24 -28 1 32 c0 17 -4 42 -9 55 -9 25 -23 251 -22 363 1
128 12 249 32 353 12 57 18 106 16 108 -3 3 -17 -19 -31 -48z"/>
<path d="M15358 5103 c-68 -73 -134 -218 -158 -348 -17 -95 -17 -95 -38 -95
-51 0 -281 -99 -335 -144 -14 -11 -42 -34 -62 -51 -50 -41 -86 -104 -90 -161
-3 -30 -11 -55 -23 -67 -20 -19 -20 -19 -82 17 -34 20 -83 42 -109 48 -25 7
-53 18 -62 25 -10 8 -27 11 -47 7 -28 -6 -32 -4 -32 14 0 34 17 35 82 2 34
-16 80 -33 103 -37 l40 -6 -20 22 c-87 99 -413 249 -575 266 -109 11 -116 16
-80 62 30 39 26 63 -5 33 -22 -21 -28 -22 -52 -11 -22 10 -24 14 -12 22 7 5
22 9 32 9 9 0 17 4 17 9 0 16 -29 20 -191 26 -127 4 -163 9 -197 25 -33 16
-46 18 -69 9 -28 -10 -43 -26 -43 -45 0 -14 117 -59 190 -73 30 -7 76 -18 102
-27 43 -14 48 -19 54 -52 12 -63 50 -111 107 -137 29 -12 66 -26 84 -29 18 -4
69 -23 115 -42 79 -33 97 -33 98 -1 0 4 6 7 14 7 7 0 19 7 26 15 21 25 40 18
40 -15 0 -19 -7 -33 -20 -40 -11 -6 -20 -15 -20 -19 0 -11 124 -101 139 -101
5 0 12 8 15 18 3 9 20 25 38 35 25 14 33 15 39 5 14 -21 11 -28 -23 -60 l-32
-30 39 -36 c22 -19 73 -66 114 -104 87 -81 114 -86 119 -25 2 27 -5 54 -22 88
-32 61 -32 64 -1 34 19 -16 41 -24 78 -27 29 -2 57 -3 64 0 6 2 29 29 51 61
47 66 307 318 398 384 40 29 65 56 72 77 7 17 23 45 37 62 14 17 25 42 25 59
0 17 6 32 15 35 8 3 24 22 35 42 18 30 19 37 7 43 -9 5 -12 18 -10 32 4 19 10
23 28 19 17 -3 27 2 35 20 7 12 26 38 43 56 35 37 74 42 134 17 40 -17 148
-21 138 -5 -8 12 4 12 80 0 33 -5 85 -12 115 -15 30 -2 83 -8 118 -11 37 -4
62 -3 62 3 0 13 -54 38 -115 53 -27 7 -81 21 -120 32 -77 21 -255 47 -323 48
-52 0 -47 -15 11 -32 23 -7 48 -18 55 -25 7 -7 25 -13 38 -13 14 0 22 -4 19
-10 -10 -16 -52 -12 -70 6 -20 20 -77 13 -138 -16 -56 -28 -80 -27 -72 3 4 12
16 37 26 55 23 39 23 42 6 42 -7 0 -29 -17 -49 -37z m-48 -263 c0 -5 -2 -10
-4 -10 -3 0 -8 5 -11 10 -3 6 -1 10 4 10 6 0 11 -4 11 -10z m-130 -228 c0 -10
-111 -65 -118 -58 -2 3 8 10 23 16 15 6 39 19 53 30 26 21 42 25 42 12z"/>
<path d="M8213 5018 c-57 -115 -82 -430 -35 -446 8 -2 12 12 12 46 0 27 7 85
15 128 8 44 19 122 25 174 5 52 13 105 16 118 11 37 -11 24 -33 -20z"/>
<path d="M5956 5031 c-3 -5 -9 -31 -12 -58 -4 -26 -11 -56 -15 -65 -12 -22
-44 -231 -54 -353 -3 -33 -13 -93 -21 -133 -9 -40 -14 -84 -12 -97 3 -15 0
-26 -10 -30 -12 -4 -12 -9 3 -31 15 -24 17 -51 13 -238 -2 -116 -8 -218 -13
-226 -6 -8 -17 -44 -26 -80 -9 -36 -26 -99 -38 -140 -12 -41 -27 -95 -34 -120
-7 -25 -18 -55 -25 -67 -6 -12 -12 -26 -12 -32 0 -5 -5 -22 -11 -38 -13 -32
-18 -73 -8 -73 19 0 89 126 176 320 64 141 103 306 103 437 0 48 4 82 9 79 5
-3 24 -32 41 -64 44 -77 159 -205 178 -197 8 3 21 0 28 -6 26 -22 15 34 -21
108 -40 81 -78 131 -171 225 l-67 67 0 93 c1 51 6 170 12 263 17 243 19 457 4
462 -6 2 -14 0 -17 -6z"/>
<path d="M4954 4985 c-77 -94 -292 -431 -281 -442 8 -7 112 102 187 194 71 88
143 227 138 268 l-3 29 -41 -49z"/>
<path d="M14093 4911 c4 -61 13 -125 20 -144 19 -43 81 -96 170 -143 39 -20
109 -59 156 -86 84 -49 145 -78 162 -78 26 0 2 41 -54 95 -47 44 -97 77 -190
125 -70 36 -127 68 -127 72 0 4 -8 9 -19 13 -10 3 -25 22 -33 43 -37 91 -58
149 -64 180 -4 17 -11 32 -17 32 -6 0 -8 -38 -4 -109z"/>
<path d="M11714 4990 c2 -14 8 -43 11 -65 23 -139 77 -355 88 -348 27 17 -43
362 -85 414 l-20 24 6 -25z"/>
<path d="M3278 4872 c-25 -64 -49 -128 -53 -142 -3 -14 -11 -34 -16 -45 -19
-40 -77 -257 -99 -371 -26 -132 8 -387 71 -529 30 -68 66 -86 49 -24 -22 75
-42 266 -42 394 0 158 4 178 127 680 25 101 31 155 18 155 -5 0 -29 -53 -55
-118z"/>
<path d="M14990 4750 c-29 -39 -50 -73 -47 -76 6 -6 107 124 107 137 0 17 -9
8 -60 -61z"/>
<path d="M16325 4751 c-3 -7 -9 -37 -12 -69 -4 -38 -14 -68 -29 -89 -27 -36
-33 -79 -9 -69 24 9 17 -14 -15 -51 -44 -50 -37 -126 8 -81 8 8 12 8 12 1 0
-6 -11 -18 -24 -27 -26 -17 -41 -63 -31 -96 6 -18 8 -19 31 -4 15 10 24 12 24
5 0 -6 -11 -16 -24 -22 -14 -7 -26 -23 -29 -38 -6 -28 10 -286 19 -311 3 -8
12 -46 20 -85 15 -75 55 -164 85 -191 20 -18 63 -13 72 8 2 7 -2 51 -9 98 -19
116 -34 304 -39 489 -4 150 -12 346 -20 465 -4 60 -17 88 -30 67z"/>
<path d="M10610 4513 c-14 -7 -24 -18 -22 -23 1 -6 -15 -18 -35 -27 -21 -8
-51 -26 -66 -39 -16 -13 -35 -24 -44 -24 -8 0 -24 -11 -35 -25 -11 -14 -29
-25 -41 -25 -16 0 -27 -12 -39 -39 -10 -20 -18 -43 -18 -50 0 -20 50 -4 81 25
14 13 33 24 42 24 18 0 47 23 149 120 64 61 78 83 61 93 -5 2 -19 -2 -33 -10z"/>
<path d="M18460 4492 c0 -24 446 -476 461 -466 5 3 9 1 9 -5 0 -11 159 -135
165 -129 2 2 -5 22 -17 45 -19 37 -216 248 -278 298 -337 270 -340 272 -340
257z"/>
<path d="M5088 4403 c7 -3 16 -2 19 1 4 3 -2 6 -13 5 -11 0 -14 -3 -6 -6z"/>
<path d="M12600 4365 c0 -5 110 -265 136 -322 7 -17 14 -34 14 -38 0 -8 37
-93 51 -119 6 -11 13 -33 16 -50 3 -17 9 -38 14 -47 10 -19 55 -223 64 -289 3
-25 8 -77 10 -117 l5 -71 -69 -1 c-38 0 -89 -7 -113 -16 -40 -13 -44 -13 -56
3 -11 14 -10 18 5 21 48 9 43 57 -16 177 -33 66 -74 128 -125 188 -42 50 -76
93 -76 98 0 4 -4 8 -10 8 -20 0 -8 -34 56 -157 72 -139 122 -221 154 -253 26
-26 26 -50 -1 -50 -11 0 -46 7 -77 16 -45 13 -85 16 -206 11 -148 -5 -153 -6
-281 -52 -71 -25 -137 -48 -146 -51 -9 -3 -19 1 -22 11 -4 9 -1 17 6 19 161
48 225 71 221 78 -7 11 -105 10 -178 -2 -96 -16 -203 -80 -133 -80 22 0 25 -5
31 -52 13 -90 16 -112 21 -128 2 -8 7 -33 10 -55 15 -100 36 -200 45 -209 7
-7 10 -4 10 6 0 9 8 15 18 14 15 -1 17 7 14 59 -4 91 -23 226 -38 268 -16 44
-22 40 91 56 290 39 335 43 370 31 23 -7 90 -11 178 -10 78 1 152 2 165 1 27
-1 30 -21 3 -21 -11 0 -23 -9 -26 -20 -7 -21 -8 -28 -20 -137 l-7 -62 -81 6
c-45 3 -113 1 -150 -5 -73 -12 -176 -55 -216 -91 -13 -11 -27 -21 -31 -21 -11
0 -240 -231 -240 -242 0 -18 24 -4 187 107 195 134 253 165 308 165 22 0 54 4
70 9 88 24 232 -28 385 -140 46 -35 93 -63 103 -64 23 -2 66 -64 45 -66 -7 -1
-130 -3 -273 -4 -143 -1 -309 -5 -370 -8 -60 -4 -150 -9 -200 -12 -189 -10
-262 -22 -245 -39 3 -2 55 -8 115 -11 61 -4 155 -11 210 -16 125 -10 997 -9
1164 3 68 4 126 6 129 3 3 -3 -3 -12 -14 -19 -39 -29 -2 -27 103 4 86 26 143
35 283 46 168 14 278 30 220 33 -14 1 -92 6 -175 11 -82 5 -206 10 -275 11
-132 2 -190 7 -190 18 0 5 25 24 150 108 115 78 332 190 433 224 34 11 69 27
77 34 31 28 92 34 485 50 81 3 109 -2 285 -46 285 -72 531 -105 835 -113 143
-4 470 15 516 29 43 14 145 26 264 30 72 3 168 10 215 14 47 5 99 9 115 9 52
-1 279 14 287 19 9 5 53 9 198 18 52 3 103 8 112 11 9 3 39 7 65 9 26 2 109 8
183 14 74 6 169 13 210 14 69 3 120 20 120 39 0 5 -13 8 -30 8 -16 0 -52 5
-80 11 -41 9 -56 18 -83 52 -18 23 -38 53 -44 67 -23 55 -61 87 -130 110 -37
12 -75 29 -84 36 -8 8 -19 14 -24 14 -19 0 -94 71 -89 84 3 8 -10 29 -30 48
-20 18 -49 58 -66 88 l-30 55 0 -42 c0 -24 -2 -43 -5 -43 -3 0 -40 16 -81 35
-41 19 -77 35 -79 35 -3 0 -35 14 -72 31 -112 51 -131 59 -140 59 -5 0 -35 15
-66 34 -31 19 -59 30 -62 26 -16 -26 83 -143 130 -154 17 -4 44 -14 60 -21 40
-19 99 -39 226 -81 103 -33 106 -35 128 -76 27 -53 82 -113 124 -135 18 -10
72 -31 120 -48 l89 -30 39 -72 c21 -40 38 -73 37 -74 -4 -1 -87 -5 -283 -14
-162 -6 -467 -30 -580 -44 -38 -5 -71 -8 -71 -7 -1 0 27 60 62 131 35 72 71
153 79 182 8 29 24 73 35 99 25 58 12 80 -19 35 -36 -50 -48 -40 -56 44 -9 90
-22 113 -52 94 -20 -12 -32 -45 -115 -329 -6 -19 -15 -47 -21 -62 -7 -20 -6
-37 3 -58 11 -27 10 -32 -9 -47 -12 -10 -28 -36 -35 -58 -13 -38 -17 -40 -63
-46 -26 -4 -61 -12 -78 -19 -16 -6 -79 -13 -139 -16 -60 -3 -112 -5 -115 -6
-32 -3 -54 5 -58 22 -7 26 -45 36 -81 21 -20 -9 -36 -9 -56 -1 -15 5 -83 10
-152 10 -111 0 -397 21 -482 36 -18 3 -49 0 -68 -6 -32 -11 -37 -10 -50 9 -13
18 -25 21 -80 21 -35 0 -64 4 -64 9 0 13 -51 29 -90 27 -19 -1 -47 7 -62 16
-14 10 -45 18 -67 18 -29 0 -49 7 -64 21 -18 17 -30 20 -66 15 -35 -5 -49 -2
-65 13 -28 25 -136 42 -261 42 -80 0 -123 -7 -215 -31 -63 -18 -142 -38 -175
-47 -33 -8 -64 -18 -70 -22 -5 -5 -23 -11 -40 -15 -29 -7 -63 -21 -130 -51
-16 -8 -52 -23 -80 -35 -27 -11 -55 -24 -61 -28 -6 -4 -33 -21 -60 -39 -87
-57 -124 -86 -129 -104 -3 -9 -23 -29 -44 -43 -43 -30 -167 -157 -192 -196
-14 -22 -26 -25 -100 -31 -46 -4 -114 -8 -151 -8 -64 -1 -68 0 -82 27 -22 42
-54 68 -68 54 -8 -8 -35 13 -104 82 -56 57 -116 107 -153 127 -34 19 -61 38
-61 44 1 5 7 28 15 50 8 22 20 73 26 112 6 40 15 73 18 73 3 1 31 3 62 5 61 5
69 -2 69 -60 0 -11 9 -49 19 -85 46 -153 61 -206 61 -221 0 -23 24 -69 36 -69
21 0 34 53 34 144 0 51 -3 96 -7 100 -19 18 -61 249 -62 339 -1 31 -4 57 -8
57 -5 0 -9 21 -11 48 -6 98 -36 232 -53 232 -4 0 -5 9 -2 20 3 11 1 20 -5 20
-5 0 -12 16 -15 35 -8 47 -130 298 -200 410 -62 99 -117 165 -117 140z m2438
-1147 c-7 -19 -34 -32 -53 -24 -14 5 -15 9 -5 21 15 18 63 20 58 3z m138 -30
c4 -6 -1 -17 -11 -25 -22 -16 -25 -16 -45 -3 -13 9 -12 12 4 25 24 18 42 19
52 3z m-1086 -53 c0 -15 -11 -31 -29 -44 -34 -25 -50 -26 -57 -7 -7 17 12 56
27 56 6 0 17 7 26 15 19 19 33 11 33 -20z m1230 16 c0 -17 -29 -33 -50 -26
-17 5 -19 10 -9 21 12 15 59 19 59 5z m138 -38 c2 -9 -8 -13 -35 -13 -36 1
-37 1 -18 16 22 17 46 15 53 -3z m142 -33 c0 -5 -11 -10 -25 -10 -14 0 -25 5
-25 10 0 6 11 10 25 10 14 0 25 -4 25 -10z m-1770 -90 c0 -9 -72 -60 -85 -60
-15 0 -1 31 23 49 29 22 62 28 62 11z"/>
<path d="M17200 4277 c0 -22 53 -123 57 -110 4 12 -43 123 -52 123 -3 0 -5 -6
-5 -13z"/>
<path d="M4968 4273 c7 -3 16 -2 19 1 4 3 -2 6 -13 5 -11 0 -14 -3 -6 -6z"/>
<path d="M18240 4277 c0 -12 152 -188 158 -182 3 2 -2 15 -11 27 -25 36 -146
164 -147 155z"/>
<path d="M10405 4260 c-12 -4 -27 -15 -35 -25 -8 -9 -24 -21 -37 -26 -13 -5
-23 -16 -23 -24 0 -28 29 -28 65 -1 54 42 74 93 30 76z"/>
<path d="M13056 4243 c-3 -3 -6 -10 -6 -14 0 -9 63 -70 67 -65 2 1 -2 17 -8
35 -11 31 -41 56 -53 44z"/>
<path d="M1292 4212 c4 -14 -23 -49 -95 -123 -93 -97 -217 -248 -217 -265 0
-4 -10 -18 -22 -31 -12 -13 -40 -50 -62 -83 -148 -215 -216 -320 -216 -329 0
-6 -4 -11 -9 -11 -6 0 -16 -11 -23 -25 -7 -14 -57 -93 -110 -175 -54 -83 -98
-152 -98 -154 0 -3 -23 -41 -50 -86 -173 -278 -233 -504 -171 -637 46 -99 198
-165 408 -178 28 -1 56 -6 63 -10 16 -10 279 -22 510 -24 107 -1 346 -3 531
-5 185 -2 342 0 350 5 8 4 19 3 26 -3 7 -5 20 -7 29 -4 8 3 136 8 282 11 147
3 296 7 332 10 36 3 88 8 115 10 28 2 115 11 194 19 79 9 159 16 177 16 21 0
79 -21 147 -53 62 -30 141 -67 177 -83 36 -15 98 -48 138 -71 40 -24 77 -43
82 -43 6 0 10 -4 10 -10 0 -5 6 -10 14 -10 8 0 42 -18 76 -41 108 -72 356
-182 457 -204 18 -3 36 -11 39 -17 15 -24 -138 2 -341 57 -236 64 -288 74
-425 82 -112 6 -252 -9 -304 -33 -20 -10 -36 -21 -36 -24 0 -4 53 -10 118 -14
124 -7 172 -12 292 -30 66 -10 75 -15 78 -34 6 -41 47 -57 242 -98 137 -28
254 -46 360 -54 58 -5 132 -13 165 -19 66 -12 258 -25 345 -23 30 0 100 1 155
1 122 1 343 19 370 31 11 5 46 12 77 15 32 4 60 10 63 15 3 4 24 11 48 15 51
8 327 100 380 127 22 11 36 22 33 25 -3 4 -36 1 -73 -5 -130 -22 -208 -34
-243 -38 -19 -2 -64 -9 -100 -15 -36 -6 -83 -13 -105 -15 -22 -3 -56 -9 -75
-14 -19 -4 -42 -8 -50 -8 -8 0 -68 -5 -133 -12 -89 -9 -133 -9 -180 -1 -34 6
-113 18 -176 26 -113 14 -172 35 -101 35 41 0 163 26 200 43 23 11 22 12 -25
17 l-50 5 32 18 c17 9 38 26 46 38 12 16 24 20 53 18 79 -5 92 -1 119 38 28
42 18 54 -22 28 -24 -16 -35 -16 -112 -6 -47 7 -95 15 -106 17 -22 5 -325 54
-334 54 -43 0 172 -71 289 -95 19 -4 44 -12 54 -17 17 -9 12 -14 -37 -33 -31
-13 -66 -30 -79 -39 -30 -21 -204 -22 -313 0 -44 8 -91 17 -105 19 -81 13
-436 177 -500 231 -50 42 -315 158 -475 208 -137 42 -151 43 -815 31 -660 -12
-1607 -7 -1785 10 -27 2 -82 7 -121 10 -84 6 -223 36 -279 60 -87 37 -120 90
-111 179 12 115 55 232 145 389 11 20 29 52 40 70 20 36 135 223 151 247 6 8
13 23 16 33 4 9 10 17 13 17 11 0 61 79 61 96 0 8 4 14 9 14 8 0 50 58 76 105
27 49 164 252 178 263 8 7 21 27 28 45 7 18 24 40 36 50 13 10 23 23 23 27 0
5 27 47 60 93 33 47 60 87 60 91 0 4 6 13 13 21 6 7 35 49 62 94 28 44 52 81
55 81 3 0 20 -23 39 -51 56 -83 170 -182 366 -321 44 -32 85 -61 90 -65 6 -5
28 -22 50 -38 22 -16 75 -58 118 -94 l77 -64 -82 -82 c-129 -127 -247 -266
-248 -291 -1 -5 -9 -20 -20 -32 -18 -22 -24 -23 -92 -17 -40 4 -120 2 -178 -5
-188 -20 -323 -57 -227 -62 17 -1 41 -2 52 -3 11 -1 100 -3 197 -4 l178 -1 -7
-32 -6 -32 31 23 c29 20 36 21 93 11 62 -11 176 -45 274 -80 129 -46 395 -92
655 -115 36 -3 94 -10 130 -15 114 -16 270 -23 445 -21 321 4 680 3 720 -3 22
-4 101 -9 175 -11 142 -6 314 -26 415 -49 33 -8 110 -24 170 -36 61 -12 124
-26 140 -31 17 -5 60 -16 95 -24 213 -47 247 -68 483 -297 143 -139 157 -156
157 -187 l0 -34 -42 7 c-50 8 -142 42 -180 68 -14 10 -29 18 -33 18 -3 0 -13
7 -22 16 -26 26 -211 144 -256 163 -23 10 -47 16 -52 14 -6 -2 -60 19 -120 46
-125 55 -155 66 -155 54 0 -8 77 -63 120 -87 68 -38 260 -154 286 -173 17 -13
34 -23 39 -23 4 0 20 -10 35 -22 15 -13 37 -30 49 -38 13 -8 34 -34 48 -58 23
-39 25 -51 21 -117 -3 -46 -11 -84 -22 -100 -22 -34 -14 -42 17 -18 36 26 66
95 74 164 3 32 10 59 15 59 5 0 25 -7 45 -15 19 -8 62 -15 93 -15 52 0 61 3
80 27 15 19 19 35 15 53 -9 37 -43 100 -78 144 -29 37 -30 40 -13 50 55 33
145 107 212 176 90 93 107 98 252 75 53 -8 124 -17 157 -19 33 -3 98 -11 145
-18 47 -7 147 -12 223 -13 127 0 153 -4 127 -20 -13 -8 -97 -132 -153 -226
-40 -69 -81 -150 -112 -224 -7 -16 -20 -49 -31 -73 l-18 -44 -18 24 c-10 13
-20 38 -24 56 -3 18 -10 35 -15 38 -5 3 -18 24 -28 47 -41 89 -262 356 -288
346 -6 -2 6 -31 30 -69 22 -36 55 -95 73 -132 19 -38 38 -68 43 -68 5 0 11
-12 14 -27 3 -16 20 -43 36 -61 17 -18 31 -37 31 -42 0 -5 29 -51 63 -102 67
-97 105 -126 92 -70 -5 24 -1 36 23 63 82 95 195 273 288 454 40 77 78 143 86
146 7 4 56 17 108 29 52 13 106 29 120 36 22 12 11 13 -95 15 -66 1 -131 0
-145 -2 -80 -9 -372 -1 -425 12 -37 10 -283 31 -385 34 -46 1 -88 -3 -109 -12
-37 -16 -126 -104 -210 -208 -78 -98 -84 -105 -94 -105 -5 0 -38 26 -72 59
-35 32 -95 78 -134 102 -39 24 -73 51 -76 60 -5 13 -173 89 -199 89 -4 0 -22
6 -39 14 -73 32 -209 77 -347 116 -58 16 -181 39 -252 46 -69 7 -83 19 -53 44
8 7 15 19 15 26 0 14 14 19 85 28 46 7 356 60 430 75 28 5 84 20 125 34 41 13
91 28 110 32 19 4 40 11 45 15 10 7 52 16 125 24 20 3 105 7 190 10 179 7 308
15 336 20 10 2 46 7 78 11 33 4 116 19 185 35 194 43 202 44 194 24 -5 -13 -2
-15 13 -10 10 3 80 21 154 40 74 19 164 45 200 56 36 12 98 30 138 41 113 29
121 39 27 38 -125 -2 -211 -16 -315 -49 -36 -11 -119 -25 -185 -30 -66 -6
-187 -23 -270 -39 -82 -17 -182 -33 -222 -36 -93 -8 -322 -10 -329 -2 -14 14
62 47 101 45 35 -3 40 0 43 19 6 38 -29 47 -160 40 -103 -5 -123 -9 -162 -32
-33 -20 -56 -25 -87 -23 -23 2 -44 8 -46 14 -2 6 36 34 84 62 115 68 203 141
203 170 0 15 -16 16 -25 1 -11 -16 -138 -75 -177 -82 -19 -3 -78 -26 -130 -50
-53 -25 -113 -50 -134 -56 -44 -12 -84 -37 -84 -52 0 -13 28 -5 107 32 70 33
160 69 171 69 8 0 -113 -72 -171 -102 -23 -11 -64 -20 -100 -22 -78 -3 -158
-27 -186 -55 -11 -11 -29 -21 -39 -21 -11 0 -27 -9 -37 -20 -9 -10 -33 -24
-51 -30 -19 -7 -40 -20 -47 -31 -15 -21 -77 -38 -77 -21 0 17 30 42 49 42 10
0 28 11 41 24 12 14 35 28 51 31 31 7 50 25 26 25 -27 0 -132 -58 -162 -90
-25 -26 -27 -33 -15 -41 24 -15 -25 -52 -60 -44 -30 6 -64 -21 -143 -115 l-38
-45 -126 3 c-70 1 -131 6 -137 11 -18 14 -234 18 -548 10 -125 -3 -170 -1
-179 9 -16 15 -61 15 -112 1 -33 -9 -41 -8 -51 6 -10 14 -24 16 -77 12 -35 -3
-80 -8 -99 -11 -19 -3 -29 -3 -22 0 23 11 12 24 -21 24 -18 0 -42 -7 -53 -15
-24 -18 -58 -19 -72 -2 -5 6 -13 28 -16 47 -8 50 -16 89 -27 138 -5 24 -7 47
-5 51 12 19 -36 262 -64 326 -5 11 -15 47 -22 80 -6 33 -19 68 -28 77 -9 9
-21 36 -27 60 -6 24 -23 61 -38 82 l-26 38 21 20 c12 11 19 22 17 25 -7 6 -53
-19 -186 -101 -128 -79 -201 -116 -230 -116 -16 0 -66 37 -191 140 -62 52 -80
66 -165 123 -50 34 -98 67 -107 72 -14 9 -214 166 -304 240 -37 30 -58 32 -52
7z m1196 -499 c5 -38 17 -97 26 -133 48 -194 74 -323 100 -485 6 -33 37 -119
52 -140 8 -11 14 -28 14 -38 0 -18 -5 -19 -57 -12 -32 4 -105 13 -163 20 -120
15 -325 52 -355 64 -11 4 -54 18 -95 31 -41 12 -86 26 -100 30 -67 21 -107 32
-123 34 -42 6 -41 24 7 73 46 49 147 176 192 243 72 106 98 132 137 136 57 5
121 45 237 149 58 52 108 94 111 94 3 1 11 -29 17 -66z m2984 -437 c18 -26
-70 -68 -97 -46 -22 18 -19 26 18 48 32 20 65 19 79 -2z m-284 -43 c-2 -10
-16 -22 -33 -28 -16 -5 -39 -20 -52 -32 -12 -13 -29 -23 -36 -23 -8 0 -28 -7
-43 -15 -16 -8 -37 -15 -48 -15 -15 0 -16 3 -6 15 7 8 22 15 34 15 13 0 32 11
44 25 12 14 29 25 38 25 9 0 29 11 46 25 35 29 61 33 56 8z m-253 -13 c-3 -5
-11 -10 -16 -10 -6 0 -7 5 -4 10 3 6 11 10 16 10 6 0 7 -4 4 -10z m-45 -44 c0
-18 -19 -33 -53 -41 -16 -4 -31 -13 -34 -21 -2 -7 -23 -20 -46 -29 -23 -9 -47
-25 -55 -36 -7 -10 -25 -19 -39 -19 -15 0 -34 -6 -42 -14 -9 -8 -29 -17 -46
-21 l-30 -6 24 20 c13 12 32 21 42 21 11 0 22 6 25 14 3 8 22 21 42 29 20 8
46 24 56 36 11 12 29 21 41 21 13 0 30 11 39 24 8 14 26 27 38 29 13 2 26 5
31 6 4 0 7 -5 7 -13z"/>
<path d="M17270 4097 c0 -17 38 -123 66 -184 43 -93 101 -170 214 -284 79 -80
176 -149 209 -149 8 0 -24 39 -70 88 -47 48 -98 105 -114 127 -16 22 -57 75
-92 117 -58 72 -115 154 -173 248 -20 33 -40 51 -40 37z"/>
<path d="M3299 3925 c-4 -38 33 -200 55 -243 28 -53 26 2 -4 115 -28 106 -48
155 -51 128z"/>
<path d="M13285 3879 c-16 -11 -43 -19 -60 -19 -30 -1 -30 -1 29 -55 33 -29
76 -61 97 -71 42 -18 83 -13 93 11 7 20 -34 62 -74 77 -24 8 -30 16 -30 38 0
36 -17 42 -55 19z"/>
<path d="M19151 3833 c5 -16 18 -39 29 -53 l20 -25 0 39 c0 38 -19 65 -47 66
-9 0 -9 -7 -2 -27z"/>
<path d="M8900 3825 c0 -23 34 -35 104 -35 69 0 116 15 116 37 0 10 -25 13
-110 13 -90 0 -110 -3 -110 -15z"/>
<path d="M6290 3730 c0 -59 42 -196 91 -297 47 -96 61 -114 73 -95 11 18 -38
221 -71 291 -37 78 -71 131 -85 131 -4 0 -8 -14 -8 -30z"/>
<path d="M10612 3586 c-108 -56 -137 -76 -111 -76 21 0 222 105 227 118 6 19
-8 14 -116 -42z"/>
<path d="M13380 3616 c0 -18 67 -69 80 -61 17 11 11 22 -28 49 -43 30 -52 32
-52 12z"/>
<path d="M11475 3495 c-55 -59 -101 -111 -103 -116 -2 -5 5 -9 15 -9 20 0 156
138 179 182 33 63 4 45 -91 -57z"/>
<path d="M3044 3418 c10 -51 53 -129 97 -176 53 -56 153 -129 198 -143 20 -6
43 -17 51 -24 8 -7 29 -16 45 -19 17 -4 38 -15 47 -23 16 -14 18 -14 24 0 9
25 -13 54 -68 87 -171 103 -300 208 -358 293 -31 46 -45 47 -36 5z"/>
<path d="M13180 3426 c0 -13 18 -72 40 -131 23 -59 38 -110 35 -113 -3 -3 -33
0 -67 6 -54 10 -64 9 -80 -5 -10 -9 -18 -23 -18 -31 0 -16 59 -76 92 -93 10
-5 18 -15 18 -21 0 -13 47 -58 60 -58 6 0 36 -9 67 -19 50 -17 126 -27 171
-22 17 2 15 31 -2 31 -33 0 -25 21 13 36 35 14 41 21 41 45 0 21 -6 32 -22 38
-34 14 -117 41 -168 55 l-45 13 -32 94 c-55 157 -103 239 -103 175z"/>
<path d="M15750 3401 c-27 -5 -36 -11 -38 -30 -2 -13 2 -27 9 -32 23 -14 6
-18 -87 -24 -107 -7 -134 -12 -134 -25 0 -45 335 -67 529 -34 168 28 352 107
322 137 -6 6 -21 5 -40 -1 -17 -6 -59 -14 -94 -17 -34 -4 -77 -11 -94 -17 -42
-12 -67 -4 -81 27 -10 22 -14 23 -46 14 -24 -7 -48 -6 -73 0 -40 12 -116 12
-173 2z"/>
<path d="M18465 3310 c-116 -10 -242 -40 -307 -72 -42 -20 -52 -44 -15 -34 93
26 448 42 572 26 39 -5 133 -12 210 -15 156 -7 160 -1 26 42 -156 50 -324 68
-486 53z"/>
<path d="M14768 2945 c-4 -4 -23 -9 -43 -11 -19 -2 -48 -10 -63 -18 -15 -8
-52 -26 -82 -41 -89 -44 -158 -94 -244 -177 -72 -68 -78 -77 -56 -78 14 0 56
18 94 40 37 22 70 40 72 40 3 0 38 23 80 50 41 28 80 50 85 50 5 0 20 6 32 14
41 25 185 49 261 43 39 -3 81 -8 93 -11 11 -2 43 -7 70 -11 94 -13 166 -30
353 -82 69 -19 134 -36 145 -37 12 -1 25 -5 30 -8 6 -3 35 -11 65 -18 30 -7
65 -16 78 -21 80 -31 405 -97 562 -114 159 -17 510 -2 487 21 -3 3 -74 14
-158 25 -85 11 -170 24 -189 29 -19 5 -62 12 -95 15 -33 4 -76 11 -95 15 -19
5 -66 12 -105 16 -38 3 -73 8 -77 10 -3 2 -122 34 -265 70 -142 36 -271 70
-288 74 -124 35 -189 52 -250 66 -38 8 -79 17 -90 20 -104 23 -393 44 -407 29z"/>
<path d="M11852 2658 c-15 -47 -40 -139 -46 -168 -3 -14 -11 -45 -16 -70 -6
-25 -15 -74 -20 -110 -15 -104 -41 -259 -55 -335 -12 -59 -20 -190 -16 -272 2
-49 22 -20 70 100 23 59 74 358 86 512 4 44 9 100 11 125 6 67 6 241 1 247 -3
2 -10 -11 -15 -29z"/>
<path d="M16850 2563 c0 -12 340 -342 464 -452 60 -53 137 -121 171 -151 33
-30 73 -64 89 -75 16 -11 50 -38 77 -60 26 -22 66 -53 88 -70 23 -16 51 -38
63 -49 20 -15 109 -75 258 -171 19 -13 75 -44 125 -70 49 -27 94 -54 100 -61
5 -7 44 -40 85 -73 41 -33 91 -73 110 -89 32 -27 135 -92 145 -92 3 0 5 6 5
13 0 18 -228 239 -333 322 -48 39 -52 42 -256 224 -180 162 -363 313 -369 306
-8 -7 15 -36 106 -130 50 -52 92 -98 92 -101 0 -8 -51 24 -65 40 -5 6 -39 33
-75 59 -36 26 -76 58 -90 70 -14 13 -47 40 -75 62 -27 21 -73 59 -101 84 -97
87 -164 144 -186 159 -13 9 -25 18 -28 21 -15 18 -183 153 -230 186 -144 102
-170 117 -170 98z"/>
<path d="M14536 2348 c37 -57 95 -146 129 -198 34 -52 112 -171 173 -265 169
-258 197 -291 190 -228 -3 23 3 30 42 49 25 13 90 39 145 59 55 20 107 39 115
42 8 4 19 5 24 4 4 -1 14 4 22 10 8 7 31 13 52 14 20 1 73 5 117 10 102 10
462 11 580 1 133 -11 314 -34 450 -58 66 -12 132 -22 146 -23 14 -1 30 -4 35
-8 6 -3 42 -13 80 -21 38 -8 103 -23 144 -32 41 -9 84 -18 95 -19 11 -1 27 -5
35 -8 8 -2 65 -17 125 -32 61 -14 144 -36 185 -47 41 -11 91 -23 110 -28 19
-4 100 -23 180 -42 80 -20 183 -43 230 -53 47 -10 118 -26 159 -36 41 -11 86
-19 100 -19 25 1 24 2 -9 19 -54 29 -413 148 -468 155 -15 2 -46 11 -70 20
-24 8 -58 17 -75 19 -18 3 -45 9 -61 16 -40 16 -106 30 -106 22 0 -3 -4 -1 -8
5 -4 6 -38 18 -77 27 -38 8 -86 20 -105 26 -76 21 -273 70 -308 76 -19 3 -55
12 -79 20 -24 8 -65 17 -91 19 -27 2 -58 8 -70 15 -11 6 -33 11 -49 11 -15 0
-71 9 -123 19 -127 25 -169 30 -450 50 -118 8 -432 4 -470 -6 -14 -3 -29 -5
-35 -4 -40 11 -270 -39 -329 -71 -86 -46 -118 -66 -163 -105 l-52 -44 -41 78
c-22 43 -58 107 -79 143 -22 36 -53 88 -69 115 -16 28 -37 57 -46 64 -9 7 -16
19 -16 26 0 7 -7 19 -16 26 -9 7 -41 46 -72 87 -66 89 -148 179 -173 193 -11
6 8 -33 47 -93z"/>
<path d="M15923 2433 c15 -2 37 -2 50 0 12 2 0 4 -28 4 -27 0 -38 -2 -22 -4z"/>
<path d="M7829 2406 c-2 -3 -38 -6 -80 -7 -116 -3 -266 -36 -459 -99 -47 -15
-125 -40 -175 -55 -115 -34 -131 -49 -45 -39 115 12 212 31 345 66 72 19 168
40 215 47 158 21 362 41 426 41 71 0 84 14 27 29 -40 10 -247 24 -254 17z"/>
<path d="M15445 2305 c-135 -14 -224 -35 -244 -59 -10 -11 -4 -12 36 -4 93 17
400 14 573 -7 27 -3 189 -17 230 -20 55 -4 180 -16 275 -26 55 -6 118 -12 140
-14 22 -2 79 -6 128 -10 58 -5 87 -4 87 3 0 12 -11 16 -100 32 -36 6 -83 15
-105 20 -68 15 -248 49 -290 54 -22 2 -47 7 -55 10 -8 3 -49 7 -90 10 -41 4
-113 10 -159 15 -119 12 -276 11 -426 -4z"/>
<path d="M10600 2301 c0 -5 12 -12 28 -15 67 -14 160 -26 197 -26 69 1 12 22
-95 37 -116 15 -130 16 -130 4z"/>
<path d="M13810 2295 c-8 -2 -82 -8 -165 -15 -281 -21 -718 -57 -775 -65 -19
-2 -81 -7 -137 -11 -98 -7 -122 -14 -87 -28 35 -13 401 6 629 33 44 6 116 13
160 16 137 10 356 42 445 64 l35 9 -45 0 c-25 0 -52 -2 -60 -3z"/>
<path d="M17393 2273 c6 -10 100 -29 187 -38 25 -2 52 -6 60 -8 69 -16 132
-27 170 -31 25 -2 52 -6 60 -9 23 -9 402 -69 520 -83 19 -2 49 -6 65 -9 110
-21 204 -36 248 -41 29 -3 59 -9 67 -14 8 -4 47 -10 87 -14 80 -8 111 -13 163
-26 19 -4 68 -11 108 -15 l72 -7 0 41 c0 38 -2 41 -37 50 -21 5 -66 12 -100
14 -34 3 -66 8 -70 10 -7 5 -181 33 -258 42 -11 1 -20 3 -20 4 0 1 -16 4 -35
7 -19 2 -69 10 -110 18 -41 8 -109 20 -150 26 -41 6 -86 14 -100 16 -26 4
-238 31 -325 41 -224 25 -612 42 -602 26z"/>
<path d="M4580 2142 c0 -5 26 -19 58 -32 31 -13 102 -44 157 -70 55 -26 127
-57 160 -71 93 -37 222 -118 209 -131 -8 -9 25 -30 36 -23 5 3 10 26 10 51 0
41 2 44 28 44 15 0 34 5 42 10 11 7 0 9 -36 8 -37 -2 -58 3 -80 19 -74 53
-266 129 -451 178 -95 26 -133 31 -133 17z"/>
<path d="M104 2070 c-16 -22 -46 -58 -66 -81 -34 -37 -38 -46 -38 -95 0 -30 2
-54 4 -54 3 0 62 89 115 176 29 49 41 94 23 94 -5 0 -21 -18 -38 -40z"/>
<path d="M14128 2013 c12 -2 30 -2 40 0 9 3 -1 5 -23 4 -22 0 -30 -2 -17 -4z"/>
<path d="M13810 2000 c-47 -4 -134 -11 -195 -14 -149 -8 -272 -17 -320 -21
-22 -2 -89 -7 -150 -10 -60 -3 -171 -10 -245 -16 -74 -6 -227 -16 -339 -24
-127 -8 -207 -18 -215 -25 -12 -13 244 -8 509 10 383 26 463 32 505 35 25 2
92 7 150 10 58 3 161 12 230 20 69 8 164 17 213 21 48 3 90 10 93 15 6 10
-112 10 -236 -1z"/>
<path d="M3246 1931 c-29 -54 -46 -228 -27 -274 26 -67 87 197 65 281 -8 30
-20 28 -38 -7z"/>
<path d="M10709 1806 c-2 -2 -148 -6 -324 -10 -176 -3 -360 -8 -410 -10 -49
-3 -205 -8 -345 -10 -499 -10 -616 -28 -368 -55 151 -17 773 -14 953 4 28 2
86 7 130 10 128 8 205 15 275 25 36 5 92 12 126 15 34 3 90 12 125 20 l64 13
-111 1 c-61 1 -113 -1 -115 -3z"/>
<path d="M12310 1756 c-3 -2 -48 -7 -100 -10 -155 -10 -209 -17 -325 -41 -207
-44 -218 -68 -26 -57 136 8 992 9 1536 2 209 -2 463 -1 565 3 102 4 250 10
330 13 79 3 147 7 151 10 4 2 58 11 120 19 63 9 130 20 149 25 19 5 49 12 65
16 l30 6 -25 10 c-16 6 -217 7 -555 3 -598 -7 -875 -7 -1485 1 -234 3 -428 3
-430 0z"/>
<path d="M2100 1707 c-3 -3 -44 -8 -91 -11 -124 -9 -386 -45 -529 -72 -41 -8
-122 -21 -180 -29 -58 -8 -112 -17 -120 -20 -8 -4 -44 -8 -80 -11 -36 -3 -81
-9 -100 -14 -19 -5 -75 -12 -124 -15 -49 -3 -92 -7 -95 -9 -3 -2 -67 -7 -141
-11 -149 -7 -193 -11 -272 -19 -29 -3 -91 -8 -138 -11 -47 -3 -118 -8 -158
-11 l-72 -6 0 -41 0 -40 222 6 c122 4 226 11 231 16 5 5 15 7 23 4 11 -4 261
11 359 21 66 7 165 18 254 27 52 5 100 14 106 19 7 5 14 7 18 4 5 -5 125 10
182 23 11 2 31 6 45 8 14 2 61 11 105 20 44 10 94 18 110 20 17 2 59 6 95 10
36 3 79 10 95 15 17 4 56 11 89 14 32 4 66 11 76 16 13 7 21 7 26 -1 4 -8 31
-9 83 -4 41 4 109 9 151 11 41 1 127 5 190 8 63 3 178 8 255 11 152 7 202 13
188 25 -10 9 -138 26 -288 39 -112 10 -507 16 -515 8z"/>
<path d="M15695 1689 c-38 -4 -113 -22 -165 -40 -52 -18 -104 -31 -115 -31
-35 3 -89 -28 -116 -66 -40 -56 -69 -149 -69 -220 0 -73 15 -69 -185 -48 -71
8 -137 14 -145 14 -21 -1 -213 12 -340 22 -58 4 -130 8 -160 7 -30 0 -71 3
-90 6 -19 4 -116 9 -215 12 -281 8 -383 13 -392 17 -4 3 -161 6 -348 7 -187 1
-358 4 -380 6 -22 2 -152 7 -290 10 -252 6 -412 -2 -509 -27 -54 -14 -71 -35
-34 -42 96 -18 177 -28 277 -31 64 -3 186 -8 271 -11 85 -3 180 -7 210 -9 47
-3 344 -9 835 -17 91 -1 134 -6 143 -15 11 -11 -14 -13 -140 -13 -147 0 -559
-19 -567 -26 -8 -7 33 -80 56 -99 23 -19 42 -20 411 -25 596 -7 833 -5 1007 9
88 7 189 15 225 18 36 3 71 9 78 15 18 15 15 49 -5 64 -26 18 -13 24 53 28 33
2 77 7 98 11 28 6 37 5 32 -3 -4 -6 1 -23 10 -38 16 -24 22 -26 61 -20 52 7
176 43 212 62 14 8 33 14 41 14 8 0 24 7 34 15 11 8 26 15 34 15 8 0 28 6 45
14 62 28 174 55 277 67 214 26 733 11 1013 -30 82 -12 246 -25 592 -45 132 -8
285 -19 340 -25 55 -6 145 -13 200 -16 114 -6 106 3 -34 36 -47 11 -90 24 -95
28 -6 5 -36 12 -66 15 -30 4 -75 11 -100 17 -25 5 -84 16 -132 24 -179 30
-254 44 -298 53 -25 6 -76 14 -115 17 -38 4 -74 11 -80 15 -5 4 -39 10 -75 14
-127 13 -130 14 -130 52 0 18 -4 35 -9 38 -35 22 -177 38 -374 42 -121 2 -227
9 -237 14 -10 6 -34 10 -52 11 l-33 1 34 8 c18 4 56 7 85 5 28 -1 101 -5 161
-9 101 -5 378 -18 450 -20 17 -1 35 -4 42 -9 6 -4 40 -10 75 -13 34 -3 79 -9
98 -14 19 -5 120 -30 224 -56 104 -25 197 -50 205 -54 9 -4 77 -27 151 -50 74
-23 151 -48 170 -55 19 -8 46 -17 60 -20 14 -3 34 -10 45 -15 11 -4 61 -20
110 -36 50 -15 95 -31 100 -35 6 -4 26 -10 45 -13 19 -4 44 -11 55 -16 11 -5
81 -25 155 -45 74 -20 142 -39 152 -41 9 -3 19 0 23 6 6 10 -96 62 -190 95
-27 9 -83 32 -122 51 -40 19 -76 34 -80 34 -5 1 -26 9 -48 20 -22 11 -48 19
-58 20 -11 0 -31 6 -45 14 -15 8 -88 33 -162 56 -74 23 -146 47 -160 52 -79
32 -347 112 -410 123 -19 3 -60 12 -90 20 -31 8 -78 17 -105 20 -28 3 -66 10
-85 15 -35 9 -51 10 -270 30 -281 25 -908 36 -1075 19z m-99 -110 c3 -5 -3 -9
-13 -9 -10 0 -45 -12 -78 -26 -33 -14 -68 -28 -78 -31 -18 -6 -41 -49 -51 -98
-4 -16 -14 -43 -22 -60 -17 -31 -62 -71 -71 -62 -5 6 32 115 54 157 7 14 13
32 13 41 0 37 34 60 115 78 91 20 123 22 131 10z m-1656 -339 c0 -5 -9 -10
-20 -10 -11 0 -20 5 -20 10 0 6 9 10 20 10 11 0 20 -4 20 -10z m60 0 c0 -5 -4
-10 -10 -10 -5 0 -10 5 -10 10 0 6 5 10 10 10 6 0 10 -4 10 -10z"/>
<path d="M3266 1595 c-9 -13 -16 -28 -16 -32 0 -5 -19 -30 -42 -56 -43 -47
-180 -127 -219 -127 -10 0 -20 -4 -23 -9 -10 -16 -128 -32 -281 -37 -268 -11
-289 -12 -370 -19 -44 -4 -89 -7 -100 -7 -21 0 -271 -27 -315 -34 -14 -2 -187
-9 -385 -14 -198 -6 -398 -15 -445 -20 -47 -5 -168 -14 -270 -20 -102 -5 -228
-14 -280 -20 -52 -6 -191 -10 -307 -10 l-213 0 0 -105 0 -105 339 0 c187 1
341 5 343 9 2 5 187 14 413 20 226 6 428 16 450 20 22 5 94 12 160 16 66 3
129 10 140 15 11 4 97 13 190 20 94 7 177 16 185 20 8 4 67 11 130 15 63 4
120 11 125 15 6 4 80 13 165 20 85 6 162 15 170 20 8 4 46 10 83 14 38 4 76
11 85 16 9 5 64 13 122 18 60 6 106 14 108 21 2 6 10 11 17 11 41 0 122 112
146 201 11 40 10 52 -5 90 -32 80 -69 101 -100 54z"/>
<path d="M11615 1540 c-57 -93 -60 -113 -22 -149 29 -29 43 -34 126 -45 71
-10 381 27 381 45 0 10 -59 17 -195 23 -60 2 -140 12 -176 21 l-65 17 2 74 c2
41 -1 74 -6 74 -5 0 -25 -27 -45 -60z"/>
<path d="M1739 1406 c-2 -2 -58 -6 -124 -10 -234 -13 -448 -27 -485 -31 -14
-2 -97 -11 -185 -20 -88 -9 -167 -18 -175 -20 -8 -2 -40 -7 -70 -10 -181 -18
-285 -39 -275 -55 9 -15 242 -11 405 6 80 8 181 17 225 20 44 2 103 9 130 14
28 5 86 14 130 20 222 26 305 38 403 57 81 15 109 33 54 33 -16 0 -31 -2 -33
-4z"/>
</g>
</svg>
